<svg xmlns="http://www.w3.org/2000/svg" width="87" height="33" viewBox="0 0 87 33">
  <g fill="none">
    <path fill="#47B3AF" d="M8.40865385,16.1192308 C8.32533416,16.1186273 8.24895049,16.0727114 8.20932952,15.9994126 C8.16970855,15.9261138 8.17313436,15.8370576 8.21826923,15.7670192 L8.85288462,14.8150962 L8.71326923,14.8880769 C8.61685274,14.9365472 8.4996697,14.9109428 8.43225616,14.8266758 C8.36484261,14.7424089 8.36558583,14.6224635 8.43403846,14.5390385 L9.38596154,13.4284615 L7.93269231,14.2471154 C7.83001863,14.302055 7.70245299,14.2709792 7.63655065,14.1749733 C7.57064831,14.0789674 7.58750064,13.9487572 7.67567308,13.8726923 L11.1660577,11.0803846 L7.72326923,13.0318269 C7.61742029,13.0966587 7.47917235,13.0651153 7.41191981,12.9607876 C7.34466728,12.85646 7.37301822,12.7175222 7.47576923,12.6478846 L12.6669231,8.86557692 L8.415,11.2485577 C8.30915106,11.3133895 8.17090312,11.281846 8.10365058,11.1775184 C8.03639805,11.0731907 8.06474899,10.934253 8.1675,10.8646154 L12.3147115,7.81528846 L7.75182692,10.4457692 C7.64720938,10.5049039 7.51466438,10.4728812 7.44858416,10.3725062 C7.38250394,10.2721312 7.40548173,10.1377227 7.50115385,10.065 L12.0132692,6.66346154 L7.25365385,9.41134615 C7.15201221,9.48670116 7.00852808,9.46539164 6.93317308,9.36375 C6.85781807,9.26210836 6.8791276,9.11862424 6.98076923,9.04326923 L11.3120192,5.77182692 L6.15259615,8.74817308 C6.04899573,8.80475343 5.91934958,8.77309209 5.85349109,8.67512759 C5.78763261,8.57716309 5.80724994,8.44515656 5.89875,8.37057692 L9.70644231,5.39105769 L5.67028846,7.70740385 C5.56668804,7.7639842 5.43704189,7.73232286 5.3711834,7.63435836 C5.30532492,7.53639386 5.32494225,7.40438733 5.41644231,7.32980769 L9.43673077,4.19798077 L4.78817308,6.89509615 C4.68595295,6.95493464 4.55495237,6.92672637 4.48641947,6.83011975 C4.41788657,6.73351313 4.43455209,6.60055028 4.52480769,6.52384615 L7.53288462,3.98538462 L2.66538462,6.76817308 C2.56076708,6.82730776 2.42822207,6.79528508 2.36214185,6.69491006 C2.29606163,6.59453504 2.31903942,6.46012652 2.41471154,6.38740385 L6.39057692,3.35076923 L1.39298077,6.20653846 C1.28938035,6.26311881 1.1597342,6.23145748 1.09387571,6.13349298 C1.02801722,6.03552848 1.04763455,5.90352194 1.13913462,5.82894231 L4.35663462,3.29048077 L0.396634615,5.54971154 C0.295267127,5.60810386 0.166168645,5.58049075 0.0975569452,5.48574126 C0.0289452455,5.39099177 0.0429909697,5.2597225 0.130096154,5.18163462 L2.55432692,2.96048077 L1.91971154,3.32221154 C1.8296805,3.36776389 1.7204288,3.34886232 1.65093468,3.27571062 C1.58144055,3.20255891 1.56816279,3.0924821 1.61826923,3.00490385 L2.44009615,1.81817308 L2.21163462,1.95144231 C2.14078267,1.99225303 2.0535405,1.99216463 1.9827714,1.9512104 C1.9120023,1.91025618 1.86845778,1.83465805 1.86854063,1.75289309 C1.86862348,1.67112814 1.91232113,1.59561841 1.98317308,1.55480769 L3.09057692,0.920192308 C3.18060796,0.874639953 3.28985966,0.893541523 3.35935379,0.966693231 C3.42884791,1.03984494 3.44212567,1.14992175 3.39201923,1.2375 L2.56384615,2.43692308 L4.10278846,1.58653846 C4.20415595,1.52814614 4.33325443,1.55575925 4.40186613,1.65050874 C4.47047783,1.74525823 4.45643211,1.8765275 4.36932692,1.95461538 L1.97365385,4.125 L6.79673077,1.36442308 C6.90033119,1.30784273 7.02997734,1.33950406 7.09583583,1.43746856 C7.16169431,1.53543306 7.14207698,1.66743959 7.05057692,1.74201923 L3.80769231,4.29634615 L9.11625,1.26923077 C9.22086754,1.21009608 9.35341254,1.24211876 9.41949277,1.34249379 C9.48557299,1.44286881 9.46259519,1.57727733 9.36692308,1.65 L5.44182692,4.64855769 L9.47480769,2.33538462 C9.57661599,2.28158163 9.70255313,2.31195582 9.76864182,2.40625309 C9.8347305,2.50055036 9.82031164,2.62929372 9.735,2.70663462 L6.77769231,5.21336538 L12.0989423,2.12596154 C12.2025427,2.06938119 12.3321889,2.10104252 12.3980474,2.19900702 C12.4639059,2.29697152 12.4442885,2.42897806 12.3527885,2.50355769 L8.25,5.71153846 L12.2575962,3.41105769 C12.3611966,3.35447734 12.4908427,3.38613868 12.5567012,3.48410318 C12.6225597,3.58206767 12.6029424,3.71407421 12.5114423,3.78865385 L8.745,6.72692308 L14.2439423,3.55384615 C14.3485598,3.49471147 14.4811049,3.52673415 14.5471851,3.62710917 C14.6132653,3.72748419 14.5902875,3.86189272 14.4946154,3.93461538 L10.1538462,7.21557692 L15.0276923,4.40740385 C15.1323098,4.34826916 15.2648549,4.38029184 15.3309351,4.48066686 C15.3970153,4.58104188 15.3740375,4.71545041 15.2783654,4.78817308 L10.7725962,8.18019231 L15.6400962,5.37519231 C15.7447137,5.31605762 15.8772587,5.3480803 15.9433389,5.44845532 C16.0094191,5.54883035 15.9864413,5.68323887 15.8907692,5.75596154 L11.4230769,9.04326923 L15.7892308,6.59682692 C15.8930473,6.55247438 16.0136939,6.59060067 16.0731708,6.68655659 C16.1326476,6.78251251 16.1131194,6.90752398 16.0272115,6.98076923 L10.9502885,10.6869231 L13.4633654,9.26538462 C13.5669658,9.20880426 13.696612,9.2404656 13.7624704,9.3384301 C13.8283289,9.4363946 13.8087116,9.56840113 13.7172115,9.64298077 L10.3283654,12.3400962 C10.4204793,12.3179842 10.5166838,12.3550126 10.570202,12.4331773 C10.6237201,12.511342 10.6234485,12.6144261 10.5695192,12.6923077 L9.49384615,13.9615385 C9.58166791,13.9520317 9.66710101,13.9940048 9.71324552,14.0693289 C9.75939003,14.144653 9.75797647,14.2398295 9.70961538,14.31375 L8.59903846,16.0018269 C8.56038374,16.0714756 8.48824305,16.1159623 8.40865385,16.1192308 L8.40865385,16.1192308 Z"/>
    <path fill="#47B3AF" d="M5.09913462 1.45644276C5.03162994 1.45607627 4.96774301 1.42587518 4.92461538 1.37394231L4.40423077.739326923 4.33442308.780576923C4.26396503.825813017 4.17440637.828882566 4.10101644.788576744 4.02762651.748270921 3.98216459.671047936 3.98253193.587319181 3.98290374.503590425 4.02904558.426771773 4.10278846.387115385L4.34076923.2475C4.43734711.19047225 4.56103847.211983791 4.63269231.298269231L5.15625.932884615 6.30490385.298269231C6.41393128.248021049 6.54325056.290726951 6.60091205.396021838 6.65857353.501316724 6.62490519.633277757 6.52384615.698076923L5.21019231 1.42788462C5.1762029 1.44669057 5.13797967 1.4565194 5.09913462 1.45644276L5.09913462 1.45644276zM11.3945192 12.3020227C11.2912969 12.3025867 11.2005165 12.2338688 11.1730425 12.1343684 11.1455685 12.0348679 11.1882266 11.929305 11.2771154 11.8768269L13.3903846 10.6075962C13.4970264 10.5544884 13.6265763 10.5922419 13.6879922 10.6943251 13.7494081 10.7964084 13.7220711 10.9285491 13.6251923 10.9978846L11.5119231 12.2671154C11.4766948 12.2892191 11.4361013 12.3012874 11.3945192 12.3020227zM12.5749038 20.8820192C12.5794889 21.242308 12.5181936 21.6004017 12.3940385 21.9386538 12.2805305 22.246667 12.1056499 22.5284191 11.88 22.7668269 11.6544509 23.0009721 11.3819566 23.1847976 11.0803846 23.30625 10.4165503 23.5613591 9.68171892 23.5613591 9.01788462 23.30625 8.71749286 23.1843222 8.44612947 23.0005303 8.22144231 22.7668269 7.99579238 22.5284191 7.82091179 22.246667 7.70740385 21.9386538 7.46439381 21.255189 7.46439381 20.5088494 7.70740385 19.8253846 7.82100503 19.5164745 7.99584931 19.2337017 8.22144231 18.9940385 8.44588527 18.7592637 8.71725443 18.5743867 9.01788462 18.4514423 9.68137943 18.1945099 10.4168898 18.1945099 11.0803846 18.4514423 11.3821956 18.5739117 11.6546956 18.7588224 11.88 18.9940385 12.105593 19.2337017 12.2804373 19.5164745 12.3940385 19.8253846 12.5181936 20.1636368 12.5794889 20.5217305 12.5749038 20.8820192L12.5749038 20.8820192zM11.8641346 20.8820192C11.8698926 20.5947231 11.8280779 20.3084537 11.7403846 20.0348077 11.6636929 19.8004231 11.539469 19.5843815 11.3754808 19.4001923 11.2125352 19.2242747 11.0118337 19.0875807 10.7884615 19.0003846 10.3065223 18.8145626 9.77270848 18.8145626 9.29076923 19.0003846 9.07195585 19.0892462 8.87574117 19.2258376 8.71644231 19.4001923 8.5509417 19.5838242 8.4255779 19.7999687 8.34836538 20.0348077 8.17694724 20.5866091 8.17694724 21.1774294 8.34836538 21.7292308 8.42566318 21.9640315 8.55101725 22.1801592 8.71644231 22.3638462 8.87606815 22.5370518 9.07225758 22.6725418 9.29076923 22.7604808 9.77320574 22.9436115 10.306025 22.9436115 10.7884615 22.7604808 11.0061404 22.672698 11.2013273 22.5371516 11.3596154 22.3638462 11.5235295 22.1796036 11.6477441 21.9635782 11.7245192 21.7292308 11.8178849 21.4565654 11.8650721 21.1702252 11.8641346 20.8820192zM13.9900962 20.3425962C14.135777 20.1720243 14.3109749 20.0290715 14.5073077 19.9205769 14.7112754 19.8121536 14.9395278 19.7575477 15.1704808 19.7619231 15.3685454 19.7585112 15.5648382 19.7997219 15.7448077 19.8825 15.9167966 19.9632589 16.0669451 20.0840305 16.1826923 20.2347115 16.3082118 20.4018967 16.4008161 20.5914126 16.4555769 20.7931731 16.5217002 21.0339563 16.5537428 21.2828202 16.5507692 21.5325 16.5534865 21.8028421 16.51715 22.0721598 16.4428846 22.3321154 16.3778341 22.5568294 16.2701018 22.7669074 16.1255769 22.9508654 15.9938575 23.1186863 15.8256669 23.2543239 15.63375 23.3475 15.4307487 23.444369 15.2081792 23.4932257 14.9832692 23.4902885 14.7742881 23.4973799 14.5669047 23.4515372 14.3803846 23.3570192 14.2149371 23.2617955 14.0720525 23.1319005 13.9615385 22.97625L13.9298077 23.2935577C13.9214457 23.3765456 13.8478895 23.4373709 13.7648077 23.43L13.3523077 23.43 13.3523077 18.1753846 13.9869231 18.1753846 13.9900962 20.3425962zM13.9900962 22.56375C14.0899414 22.6995726 14.2218414 22.8085808 14.3740385 22.8810577 14.5185803 22.946105 14.6756481 22.9786018 14.8341346 22.97625 15.1392412 22.9932886 15.4329033 22.8577522 15.6178846 22.6145192 15.8124688 22.3046701 15.9066608 21.9423078 15.8875962 21.5769231 15.9142781 21.2337072 15.8297197 20.8910231 15.6464423 20.5996154 15.482681 20.3875369 15.2255009 20.2690208 14.9578846 20.2823077 14.767137 20.2774762 14.5789497 20.3269992 14.4152885 20.4250962 14.248633 20.5315523 14.1033488 20.668227 13.9869231 20.8280769L13.9900962 22.56375zM19.4636538 20.4155769C19.4393533 20.4665303 19.3867598 20.4978359 19.3303846 20.4949038 19.2875734 20.4928658 19.2460251 20.4797453 19.2098077 20.4568269L19.0384615 20.3679808C18.962662 20.3322095 18.8841471 20.3025011 18.8036538 20.2791346 18.700395 20.250313 18.5935419 20.2364221 18.4863462 20.2378846 18.3885486 20.2367193 18.2911555 20.2506326 18.1975962 20.2791346 18.1184327 20.3039602 18.0443027 20.3426367 17.9786538 20.3933654 17.920601 20.4374851 17.8729409 20.4938107 17.8390385 20.5583654 17.8069042 20.6223187 17.7905821 20.693048 17.7914423 20.7646154 17.788459 20.848961 17.8167056 20.9314411 17.8707692 20.99625 17.9305545 21.0633771 18.0027418 21.1183256 18.0833654 21.1580769 18.1801047 21.2070559 18.2809765 21.2474046 18.3848077 21.2786538L18.7211538 21.3865385C18.8396154 21.4267308 18.9549038 21.4700962 19.0670192 21.5166346 19.175222 21.561664 19.2766666 21.6214629 19.3684615 21.6943269 19.4569658 21.7662811 19.5293909 21.8560018 19.5810577 21.9576923 19.642073 22.074167 19.6736645 22.2038013 19.6730769 22.3352885 19.6748462 22.4941087 19.6446309 22.6516604 19.5842308 22.7985577 19.5254461 22.9396095 19.4353925 23.0654675 19.3208654 23.1666346 19.1954241 23.2752999 19.0498891 23.3583087 18.8925 23.4109615 18.7032365 23.4734653 18.5047638 23.5035044 18.3054808 23.4998077 18.0711991 23.5028706 17.8385137 23.4608579 17.6200962 23.3760577 17.4281248 23.3022061 17.2508382 23.1947597 17.0965385 23.05875L17.2456731 22.8144231C17.2620323 22.7853357 17.2848244 22.7603729 17.3123077 22.7414423 17.3429838 22.723332 17.3782565 22.7145138 17.4138462 22.7160577 17.4635136 22.7183126 17.5112276 22.7360667 17.5502885 22.7668269L17.7248077 22.8778846C17.803285 22.9232854 17.8862207 22.9605002 17.9723077 22.9889423 18.0903818 23.0255531 18.2136279 23.0427004 18.3372115 23.0397115 18.4448576 23.0410928 18.552016 23.0250191 18.6545192 22.9921154 18.7395435 22.9644245 18.8182614 22.9202131 18.8861538 22.8620192 18.9455951 22.8098266 18.9922727 22.744695 19.0225962 22.6716346 19.0524214 22.5991843 19.0675227 22.5215206 19.0670192 22.4431731 19.0704227 22.3539227 19.0423437 22.2663161 18.9876923 22.1956731 18.928911 22.1258337 18.8565913 22.0686256 18.7750962 22.0275 18.6735619 21.9769425 18.5672751 21.9365535 18.4577885 21.9069231L18.1119231 21.7990385C17.9934615 21.7609615 17.8781731 21.7175962 17.7660577 21.6689423 17.6515215 21.6241378 17.5445143 21.5620736 17.44875 21.4849038 17.3596707 21.4097242 17.2872617 21.3167813 17.2361538 21.2120192 17.1794573 21.087701 17.1523064 20.9519463 17.1568269 20.8153846 17.1560877 20.677483 17.1853197 20.5410672 17.2425 20.4155769 17.3006401 20.2865876 17.3861808 20.1718114 17.4931731 20.0792308 17.611619 19.977196 17.7483701 19.8985911 17.8961538 19.8475962 18.0718064 19.7879056 18.2564297 19.758924 18.4419231 19.7619231 18.6587588 19.7598006 18.8740529 19.7985535 19.0765385 19.8761538 19.2594902 19.9490597 19.4265291 20.0568267 19.5683654 20.1934615L19.4636538 20.4155769zM23.3919231 22.935C23.3112539 23.0317053 23.2159702 23.1152124 23.1095192 23.1825 22.9990222 23.2536809 22.8808773 23.3122212 22.7573077 23.3570192 22.631557 23.402347 22.5020017 23.4363288 22.3701923 23.4585577 22.2391918 23.4812811 22.1065135 23.4929568 21.9735577 23.4934615 21.7369725 23.4959334 21.5021231 23.4528418 21.2818269 23.3665385 21.0748558 23.2843547 20.8885208 23.1576036 20.7360577 22.9952885 20.5756431 22.8204389 20.4535164 22.6140123 20.3775 22.3892308 20.2868161 22.1216177 20.24281 21.8404075 20.2474038 21.5578846 20.2459323 21.3170525 20.2856387 21.0777408 20.3648077 20.8502885 20.4365858 20.6395541 20.5498748 20.4453444 20.6979808 20.2791346 20.8466036 20.116571 21.028391 19.9878049 21.2310577 19.9015385 21.4548622 19.8073255 21.6958647 19.7608542 21.9386538 19.7650962 22.1446123 19.7628165 22.3491517 19.7994183 22.5415385 19.8729808 22.7219209 19.9436213 22.8852376 20.0517781 23.0206731 20.1902885 23.1607542 20.3354891 23.2688472 20.5084379 23.3379808 20.6979808 23.4174673 20.9186818 23.4561734 21.1519935 23.4522115 21.3865385 23.4582674 21.4547697 23.4473674 21.52344 23.4204808 21.5864423 23.3919321 21.6232866 23.3462088 21.6425385 23.2999038 21.6372115L20.8725 21.6372115C20.8754999 21.8395903 20.9075582 22.0404884 20.9676923 22.23375 21.015978 22.3900822 21.0959032 22.5348118 21.2025 22.6589423 21.300592 22.770357 21.4233809 22.8572872 21.5610577 22.9127885 21.7094946 22.9713833 21.8679294 23.0004836 22.0275 22.9984615 22.1669463 23.0016216 22.3060553 22.9834304 22.44 22.9445192 22.5425821 22.9126323 22.6423463 22.8723021 22.7382692 22.8239423 22.8102132 22.78758 22.8801244 22.7473282 22.9476923 22.7033654 22.9901669 22.6717601 23.040834 22.6530354 23.0936538 22.6494231 23.1415284 22.6474981 23.187046 22.6702569 23.2142308 22.7097115L23.3919231 22.935zM22.8778846 21.2374038C22.8789413 21.0994702 22.8575064 20.9622867 22.8144231 20.83125 22.7761004 20.7143879 22.7145836 20.6064636 22.6335577 20.5139423 22.5517158 20.4241465 22.450913 20.3536929 22.3384615 20.3076923 21.9598971 20.1621631 21.5319792 20.2365306 21.2247115 20.50125 21.0401649 20.7058672 20.928586 20.9658462 20.9074038 21.2405769L22.8778846 21.2374038zM24.8325 20.5456731C24.9283966 20.3232289 25.0725471 20.1248865 25.2545192 19.965 25.4267014 19.8235926 25.6442075 19.7492123 25.8669231 19.7555769 25.9406406 19.7555324 26.0141137 19.764051 26.0858654 19.7809615 26.1524084 19.7963129 26.2157624 19.8231578 26.2730769 19.8602885L26.2254808 20.33625C26.2188637 20.3898404 26.1714609 20.428878 26.1175962 20.4250962 26.0683252 20.42256 26.0194297 20.4151194 25.9716346 20.4028846 25.899678 20.3875458 25.8262634 20.3800979 25.7526923 20.3806731 25.6446873 20.3777329 25.5370804 20.39495 25.4353846 20.4314423 25.34689 20.4647537 25.2659695 20.515464 25.1974038 20.5805769 25.1221106 20.652067 25.0579386 20.7344211 25.0070192 20.8249038 24.9473827 20.9261834 24.8964314 21.032332 24.8547115 21.1422115L24.8547115 23.43 24.2200962 23.43 24.2200962 19.8190385 24.585 19.8190385C24.6357125 19.8130264 24.6868031 19.8266505 24.7277885 19.8571154 24.7595039 19.8958898 24.7783575 19.9435783 24.7817308 19.9935577L24.8325 20.5456731zM29.9379808 19.8190385L28.4593269 23.4426923 27.8881731 23.4426923 26.4095192 19.8190385 26.9267308 19.8190385C26.9731773 19.8164558 27.0191026 19.8298973 27.0568269 19.8571154 27.0876047 19.8805678 27.1107829 19.9125759 27.1234615 19.9491346L28.0436538 22.2813462C28.0732692 22.3701923 28.0986538 22.4558654 28.1198077 22.5383654 28.1409615 22.6208654 28.1610577 22.7044231 28.1800962 22.7890385 28.1991346 22.7065385 28.2192308 22.6229808 28.2403846 22.5383654 28.2615385 22.45375 28.2879808 22.3680769 28.3197115 22.2813462L29.2494231 19.9491346C29.2637822 19.9108744 29.2891835 19.8777422 29.3224038 19.8539423 29.3562244 19.8285649 29.3975306 19.8151683 29.4398077 19.8158395L29.9379808 19.8190385zM30.3504808 20.3299038C30.5332546 20.1477381 30.7484956 20.0013742 30.9850962 19.8983654 31.2291559 19.8006619 31.4901133 19.7521367 31.7529808 19.7555769 31.9377878 19.7527959 32.1212562 19.7873311 32.2924038 19.8571154 32.4435752 19.9198296 32.5790169 20.0151806 32.6890385 20.1363462 32.8001984 20.261212 32.8834885 20.4083217 32.9333654 20.5678846 32.9899778 20.7485611 33.017818 20.937018 33.0158654 21.1263462L33.0158654 23.4426923 32.7334615 23.4426923C32.6838914 23.4449911 32.6346042 23.4340384 32.5906731 23.4109615 32.5505717 23.381635 32.5224034 23.3388191 32.5113462 23.2903846L32.4383654 22.9476923C32.349415 23.0307414 32.2562126 23.1091161 32.1591346 23.1825 32.0701393 23.2493603 31.9744322 23.3067845 31.8735577 23.3538462 31.7720313 23.4012519 31.6656313 23.4374279 31.55625 23.4617308 31.4321391 23.4880865 31.305528 23.500854 31.1786538 23.4998077 31.0441241 23.5002896 30.9103298 23.4799529 30.7820192 23.4395192 30.6654479 23.4020659 30.5575574 23.3416472 30.4647115 23.2618269 30.3702518 23.1801128 30.2954178 23.0781651 30.2457692 22.9635577 30.189496 22.8279369 30.1624652 22.6819706 30.1664423 22.5351923 30.1671226 22.3895438 30.2077296 22.2468705 30.2838462 22.1226923 30.3796791 21.9744526 30.5118524 21.8532027 30.6677885 21.7704808 30.884819 21.6534399 31.1178932 21.5689773 31.3595192 21.5198077 31.7029267 21.4480742 32.0526483 21.4108697 32.4034615 21.40875L32.4034615 21.1263462C32.4193804 20.9001514 32.3553686 20.6755485 32.2225962 20.4917308 32.0872281 20.3421031 31.890852 20.2626175 31.6895192 20.2759615 31.5547905 20.2725682 31.4205201 20.2929773 31.2928846 20.33625 31.1965056 20.3710101 31.1039915 20.4156721 31.0168269 20.4695192L30.8169231 20.6027885C30.7695193 20.6395333 30.7118497 20.6606049 30.6519231 20.6630769 30.6120689 20.6639995 30.5730264 20.651729 30.5408654 20.6281731 30.5096411 20.6057086 30.4827617 20.577754 30.4615385 20.5456731L30.3504808 20.3299038zM32.4066346 21.8117308C32.1556864 21.8173299 31.9054477 21.8406573 31.6577885 21.8815385 31.4842502 21.9092476 31.3147958 21.9582721 31.1532692 22.0275 31.0424545 22.0729639 30.9452021 22.1461764 30.8708654 22.2400962 30.8125071 22.3190501 30.7813319 22.4148027 30.7820192 22.5129808 30.7801741 22.5979208 30.7963977 22.6822836 30.8296154 22.7604808 30.8578173 22.8268069 30.9013092 22.885521 30.9565385 22.9318269 31.0125081 22.9767361 31.0774139 23.0091891 31.1469231 23.0270192 31.2233856 23.0482229 31.3023829 23.0588982 31.3817308 23.05875 31.4885318 23.0601852 31.5951031 23.0484623 31.6990385 23.0238462 31.7904772 23.0018137 31.8789099 22.9687846 31.9624038 22.9254808 32.045265 22.8821682 32.1238789 22.8311754 32.1972115 22.7731731 32.2749744 22.7108264 32.3481446 22.6429585 32.4161538 22.5700962L32.4066346 21.8117308zM35.0656731 23.4998077C34.8215989 23.5154695 34.5821553 23.4279805 34.4056731 23.2586538 34.2404732 23.0687805 34.1571897 22.8212117 34.1740385 22.5700962L34.1740385 20.3489423 33.7393269 20.3489423C33.7002477 20.3501076 33.6624 20.3351979 33.6346154 20.3076923 33.6072413 20.2800234 33.5933311 20.2417702 33.5965385 20.2029808L33.5965385 19.9491346 34.1899038 19.8729808 34.3358654 18.7528846C34.3414251 18.7188057 34.3581708 18.6875471 34.3834615 18.6640385 34.4105044 18.6401244 34.445759 18.6276147 34.4818269 18.6291346L34.7991346 18.6291346 34.7991346 19.8761538 35.8557692 19.8761538 35.8557692 20.33625 34.8086538 20.33625 34.8086538 22.5288462C34.7987969 22.652315 34.8387932 22.7745894 34.9197115 22.8683654 34.995578 22.943086 35.0988733 22.9832564 35.2052885 22.9794231 35.2645007 22.9812733 35.3235761 22.9726805 35.3798077 22.9540385 35.4238829 22.9378968 35.4663715 22.9177147 35.5067308 22.89375L35.59875 22.8334615C35.6177927 22.8182963 35.6410785 22.8094255 35.6653846 22.8080769 35.7036073 22.8109625 35.7374286 22.8339127 35.7542308 22.8683654L35.9414423 23.1856731C35.8263944 23.2913835 35.6916048 23.3733355 35.5448077 23.4268269 35.3907973 23.4798212 35.2284771 23.5045454 35.0656731 23.4998077L35.0656731 23.4998077zM38.0261538 19.7619231C38.2705955 19.758819 38.5132356 19.8041118 38.7400962 19.8951923 38.9459325 19.9792517 39.1310626 20.1070023 39.2826923 20.2696154 39.4374896 20.4391509 39.5552792 20.6390691 39.6285577 20.8566346 39.7884748 21.3582355 39.7884748 21.8971491 39.6285577 22.39875 39.5553643 22.6163543 39.4375648 22.8162893 39.2826923 22.9857692 39.1316723 23.1490871 38.9463751 23.276953 38.7400962 23.3601923 38.5129013 23.4497882 38.2703489 23.4939866 38.0261538 23.4902885 37.7799031 23.4939187 37.5352871 23.449737 37.3058654 23.3601923 37.0983974 23.2774574 36.9119607 23.1495532 36.7600962 22.9857692 36.6052237 22.8162893 36.4874242 22.6163543 36.4142308 22.39875 36.2543137 21.8971491 36.2543137 21.3582355 36.4142308 20.8566346 36.4874242 20.6390303 36.6052237 20.4390953 36.7600962 20.2696154 36.9125767 20.1065464 37.0988427 19.9787593 37.3058654 19.8951923 37.5348667 19.8038528 37.7796315 19.7585659 38.0261538 19.7619231zM38.0261538 22.9952885C38.3358379 23.0167588 38.6358063 22.8822492 38.8257692 22.6367308 39.1787111 22.0125944 39.1787111 21.2491363 38.8257692 20.625 38.6364944 20.3782906 38.3364131 20.2425396 38.0261538 20.2632692 37.8637579 20.2593952 37.7024539 20.29079 37.5533654 20.3552885 37.4206675 20.4159888 37.3051006 20.5086603 37.2170192 20.625 37.1220238 20.7539283 37.0540313 20.9007057 37.0171154 21.0565385 36.9706402 21.2454584 36.9482509 21.4394987 36.9504808 21.6340385 36.9296542 21.9881887 37.0230856 22.3396687 37.2170192 22.6367308 37.4113973 22.8819842 37.7139013 23.0160349 38.0261538 22.9952885zM39.0700962 18.2610577L38.2355769 19.1844231C38.2078603 19.2157581 38.1744903 19.2415929 38.1372115 19.2605769 38.0981864 19.2772919 38.0558637 19.2848883 38.0134615 19.2827885L37.6358654 19.2827885 38.1657692 18.4038462C38.1919816 18.3558935 38.2288998 18.3146319 38.2736538 18.2832692 38.3269805 18.254127 38.387554 18.240911 38.4481731 18.2451923L39.0700962 18.2610577zM41.1611538 20.5456731C41.2524368 20.3247381 41.3910808 20.1265206 41.5673077 19.965 41.7394899 19.8235926 41.9569959 19.7492123 42.1797115 19.7555769 42.253429 19.7555324 42.3269022 19.764051 42.3986538 19.7809615 42.4651969 19.7963129 42.5285509 19.8231578 42.5858654 19.8602885L42.5382692 20.33625C42.5316522 20.3898404 42.4842494 20.428878 42.4303846 20.4250962 42.3811137 20.42256 42.3322182 20.4151194 42.2844231 20.4028846 42.2124664 20.3875458 42.1390519 20.3800979 42.0654808 20.3806731 41.9574758 20.3777329 41.8498689 20.39495 41.7481731 20.4314423 41.6596785 20.4647537 41.5787579 20.515464 41.5101923 20.5805769 41.4348991 20.652067 41.370727 20.7344211 41.3198077 20.8249038 41.2601712 20.9261834 41.2092199 21.032332 41.1675 21.1422115L41.1675 23.43 40.5328846 23.43 40.5328846 19.8190385 40.9326923 19.8190385C40.9834048 19.8130264 41.0344954 19.8266505 41.0754808 19.8571154 41.1071962 19.8958898 41.1260498 19.9435783 41.1294231 19.9935577L41.1611538 20.5456731zM44.0585953 18.6830769C44.0590533 18.7433548 44.0447216 18.8029694 44.01664 18.8575962 43.9888079 18.9107501 43.9509433 18.9590748 43.9047589 19.0003846 43.8586802 19.0423228 43.8040573 19.075731 43.74393 19.09875 43.6819699 19.1223752 43.6153414 19.1342531 43.5481382 19.1336538 43.4820346 19.1345575 43.4164785 19.1226583 43.3558427 19.09875 43.29808 19.0752307 43.2458498 19.0418338 43.2020063 19.0003846 43.1580362 18.9587765 43.1225258 18.910435 43.0971178 18.8575962 43.0707743 18.8025657 43.0576631 18.7430698 43.0586587 18.6830769 43.0579984 18.6220862 43.0710862 18.561617 43.0971178 18.5053846 43.1218853 18.4512872 43.157444 18.4018042 43.2020063 18.3594231 43.2458498 18.3179739 43.29808 18.284577 43.3558427 18.2610577 43.4165418 18.2373334 43.4820541 18.2254421 43.5481382 18.2261538 43.6153233 18.225731 43.6819131 18.2376019 43.74393 18.2610577 43.804015 18.2841475 43.8586238 18.317547 43.9047589 18.3594231 43.9515743 18.4014579 43.9894956 18.4509306 44.01664 18.5053846 44.0443641 18.5612412 44.0586663 18.6218149 44.0585953 18.6830769zM43.9082552 19.8190385L43.9082552 23.4426923 43.2089988 23.4426923 43.2089988 19.8190385 43.9082552 19.8190385zM46.4030769 19.7619231C46.6475258 19.7587351 46.8901822 19.804031 47.1170192 19.8951923 47.3228556 19.9792517 47.5079856 20.1070023 47.6596154 20.2696154 47.8144878 20.4390953 47.9322873 20.6390303 48.0054808 20.8566346 48.1653979 21.3582355 48.1653979 21.8971491 48.0054808 22.39875 47.9322873 22.6163543 47.8144878 22.8162893 47.6596154 22.9857692 47.5085954 23.1490871 47.3232981 23.276953 47.1170192 23.3601923 46.8898244 23.4497882 46.647272 23.4939866 46.4030769 23.4902885 46.1568262 23.4939187 45.9122102 23.449737 45.6827885 23.3601923 45.4753204 23.2774574 45.2888838 23.1495532 45.1370192 22.9857692 44.9821468 22.8162893 44.8643473 22.6163543 44.7911538 22.39875 44.6312368 21.8971491 44.6312368 21.3582355 44.7911538 20.8566346 44.8643473 20.6390303 44.9821468 20.4390953 45.1370192 20.2696154 45.2922485 20.1053968 45.4818717 19.9775366 45.6923077 19.8951923 45.9183405 19.8050758 46.1597513 19.7598112 46.4030769 19.7619231zM46.4030769 22.9952885C46.712761 23.0167588 47.0127294 22.8822492 47.2026923 22.6367308 47.5556342 22.0125944 47.5556342 21.2491363 47.2026923 20.625 47.0137832 20.3778299 46.7134406 20.2419606 46.4030769 20.2632692 46.240681 20.2593952 46.079377 20.29079 45.9302885 20.3552885 45.7975204 20.4158749 45.6819278 20.5085671 45.5939423 20.625 45.499022 20.7539727 45.4310369 20.9007343 45.3940385 21.0565385 45.3476301 21.2454704 45.3252418 21.4395023 45.3274038 21.6340385 45.306351 21.9882115 45.3998009 22.3397613 45.5939423 22.6367308 45.7883204 22.8819842 46.0908244 23.0160349 46.4030769 22.9952885zM53.7582692 18.1753846L53.7582692 23.4426923 53.3775 23.4426923C53.2946416 23.4488432 53.2205882 23.391246 53.2061538 23.3094231L53.1490385 22.8683654C53.0003278 23.0486028 52.8209345 23.2011408 52.6191346 23.3189423 52.4099589 23.435949 52.1733788 23.495094 51.93375 23.4902885 51.738846 23.492705 51.5458683 23.4515075 51.3689423 23.3697115 51.1988572 23.288732 51.0508221 23.1679092 50.9374038 23.0175 50.808759 22.84358 50.7150138 22.6463919 50.6613462 22.4368269 50.5940147 22.1768216 50.5619963 21.9089345 50.5661538 21.6403846 50.5641963 21.3878012 50.6005718 21.1363825 50.6740385 20.8947115 50.7415893 20.6768131 50.8491995 20.4734297 50.9913462 20.295 51.1231098 20.1264144 51.2912307 19.9897484 51.4831731 19.8951923 51.6876826 19.7958264 51.9126541 19.7458328 52.14 19.7492308 52.3365153 19.744304 52.53165 19.7833309 52.7111538 19.8634615 52.8720696 19.9407409 53.0164673 20.0485004 53.1363462 20.1807692L53.1363462 18.1753846 53.7582692 18.1753846zM53.1236538 20.6821154C53.0245936 20.5403546 52.8914724 20.4257832 52.7365385 20.3489423 52.5897662 20.2838688 52.4306299 20.251392 52.2700962 20.25375 51.9663307 20.2410035 51.6761175 20.3801632 51.4958654 20.625 51.2958271 20.9302174 51.2000832 21.2920403 51.2229808 21.65625 51.2194277 21.8599268 51.2396608 22.0633223 51.2832692 22.2623077 51.3147007 22.411167 51.3750751 22.5523999 51.4609615 22.6779808 51.5338802 22.7819965 51.6336834 22.8642519 51.7497115 22.9159615 51.8729959 22.9685388 52.0059934 22.9944895 52.14 22.9921154 52.3327304 22.9967658 52.5229054 22.9472983 52.6889423 22.8493269 52.8567367 22.7431857 53.0031173 22.6064921 53.1204808 22.4463462L53.1236538 20.6821154zM56.2967308 19.7619231C56.5411796 19.7587351 56.7838361 19.804031 57.0106731 19.8951923 57.2165094 19.9792517 57.4016395 20.1070023 57.5532692 20.2696154 57.7081417 20.4390953 57.8259412 20.6390303 57.8991346 20.8566346 58.0590517 21.3582355 58.0590517 21.8971491 57.8991346 22.39875 57.8259412 22.6163543 57.7081417 22.8162893 57.5532692 22.9857692 57.4022492 23.1490871 57.216952 23.276953 57.0106731 23.3601923 56.7834783 23.4497882 56.5409258 23.4939866 56.2967308 23.4902885 56.0504801 23.4939187 55.8058641 23.449737 55.5764423 23.3601923 55.3689743 23.2774574 55.1825376 23.1495532 55.0306731 22.9857692 54.8758006 22.8162893 54.7580011 22.6163543 54.6848077 22.39875 54.5248906 21.8971491 54.5248906 21.3582355 54.6848077 20.8566346 54.7580011 20.6390303 54.8758006 20.4390953 55.0306731 20.2696154 55.1831537 20.1065464 55.3694196 19.9787593 55.5764423 19.8951923 55.8054436 19.8038528 56.0502085 19.7585659 56.2967308 19.7619231zM56.2967308 22.9952885C56.6064148 23.0167588 56.9063833 22.8822492 57.0963462 22.6367308 57.449288 22.0125944 57.449288 21.2491363 57.0963462 20.625 56.9074371 20.3778299 56.6070945 20.2419606 56.2967308 20.2632692 56.1343349 20.2593952 55.9730308 20.29079 55.8239423 20.3552885 55.6911743 20.4158749 55.5755816 20.5085671 55.4875962 20.625 55.3926759 20.7539727 55.3246907 20.9007343 55.2876923 21.0565385 55.241284 21.2454704 55.2188957 21.4395023 55.2210577 21.6340385 55.2000048 21.9882115 55.2934548 22.3397613 55.4875962 22.6367308 55.6819743 22.8819842 55.9844782 23.0160349 56.2967308 22.9952885zM66.1396154 18.3181731L66.1396154 23.4426923 65.5303846 23.4426923 65.5303846 19.6730769C65.5303846 19.6223077 65.5303846 19.5683654 65.5303846 19.51125 65.5303846 19.4541346 65.5303846 19.3970192 65.5303846 19.3367308L63.7788462 22.5447115C63.736137 22.6447502 63.6369237 22.7087993 63.5281731 22.7065385L63.4266346 22.7065385C63.317884 22.7087993 63.2186707 22.6447502 63.1759615 22.5447115L61.38 19.3272115C61.3938733 19.4430555 61.4012886 19.5595819 61.4022115 19.67625L61.4022115 23.4426923 60.7929808 23.4426923 60.7929808 18.3181731 61.3038462 18.3181731C61.352167 18.3165931 61.4004158 18.3230263 61.4466346 18.3372115 61.4891719 18.3590056 61.5228197 18.3948965 61.5418269 18.43875L63.3282692 21.5769231C63.3568269 21.6340385 63.3853846 21.6943269 63.4139423 21.7546154 63.4425 21.8149038 63.4678846 21.8783654 63.4900962 21.945 63.5154808 21.8815385 63.5376923 21.8180769 63.56625 21.7546154 63.5916852 21.6928967 63.6202807 21.6325284 63.6519231 21.57375L65.3907692 18.4228846C65.4082719 18.3780628 65.4423609 18.3417012 65.4859615 18.3213462 65.5332549 18.307098 65.5825573 18.3006672 65.6319231 18.3023077L66.1396154 18.3181731zM67.0978846 20.3299038C67.2807537 20.1478534 67.4959717 20.0015052 67.7325 19.8983654 67.976583 19.8007422 68.2375243 19.7522201 68.5003846 19.7555769 68.6851916 19.7527959 68.86866 19.7873311 69.0398077 19.8571154 69.1910299 19.9197371 69.3264907 20.0151014 69.4364423 20.1363462 69.5475231 20.2612687 69.630803 20.4083605 69.6807692 20.5678846 69.7373816 20.7485611 69.7652219 20.937018 69.7632692 21.1263462L69.7632692 23.4426923 69.4903846 23.4426923C69.4408145 23.4449911 69.3915272 23.4340384 69.3475962 23.4109615 69.3074948 23.381635 69.2793265 23.3388191 69.2682692 23.2903846L69.1952885 22.9476923C69.1063042 23.0307032 69.0131039 23.1090763 68.9160577 23.1825 68.8271403 23.249476 68.7314207 23.3069077 68.6304808 23.3538462 68.5289639 23.4012754 68.4225612 23.4374523 68.3131731 23.4617308 68.1890661 23.4881114 68.0624522 23.5008792 67.9355769 23.4998077 67.8010472 23.5002896 67.6672529 23.4799529 67.5389423 23.4395192 67.4223365 23.4021451 67.3144309 23.341718 67.2216346 23.2618269 67.1271748 23.1801128 67.0523409 23.0781651 67.0026923 22.9635577 66.9464191 22.8279369 66.9193883 22.6819706 66.9233654 22.5351923 66.9240456 22.3895438 66.9646527 22.2468705 67.0407692 22.1226923 67.1366022 21.9744526 67.2687755 21.8532027 67.4247115 21.7704808 67.6417231 21.6533977 67.8748037 21.5689327 68.1164423 21.5198077 68.4598465 21.4480532 68.8095702 21.4108485 69.1603846 21.40875L69.1603846 21.1263462C69.1753889 20.8997677 69.1102433 20.6751278 68.9763462 20.4917308 68.8412559 20.3417061 68.6446785 20.2621391 68.4432692 20.2759615 68.3085405 20.2725682 68.1742701 20.2929773 68.0466346 20.33625 67.9502556 20.3710101 67.8577415 20.4156721 67.7705769 20.4695192L67.5706731 20.6027885C67.5232693 20.6395333 67.4655997 20.6606049 67.4056731 20.6630769 67.3658189 20.6639995 67.3267764 20.651729 67.2946154 20.6281731 67.2633911 20.6057086 67.2365117 20.577754 67.2152885 20.5456731L67.0978846 20.3299038zM69.1540385 21.8117308C68.9030903 21.8173299 68.6528515 21.8406573 68.4051923 21.8815385 68.2316398 21.9091841 68.0621778 21.9582109 67.9006731 22.0275 67.7898584 22.0729639 67.692606 22.1461764 67.6182692 22.2400962 67.559911 22.3190501 67.5287357 22.4148027 67.5294231 22.5129808 67.5275779 22.5979208 67.5438015 22.6822836 67.5770192 22.7604808 67.6052211 22.8268069 67.648713 22.885521 67.7039423 22.9318269 67.7599119 22.9767361 67.8248178 23.0091891 67.8943269 23.0270192 67.9707973 23.0481842 68.0497894 23.0588674 68.1291346 23.05875 68.2359356 23.0601852 68.3425069 23.0484623 68.4464423 23.0238462 68.5378902 23.0018437 68.6263265 22.9688132 68.7098077 22.9254808 68.7926878 22.8822006 68.8713046 22.8312059 68.9446154 22.7731731 69.0224145 22.7108684 69.0955876 22.6429977 69.1635577 22.5700962L69.1540385 21.8117308zM71.3498077 20.5456731C71.4456115 20.3231761 71.5897759 20.1248146 71.7718269 19.965 71.9440091 19.8235926 72.1615151 19.7492123 72.3842308 19.7555769 72.4579482 19.7555324 72.5314214 19.764051 72.6031731 19.7809615 72.6696763 19.7964355 72.7330097 19.8232717 72.7903846 19.8602885L72.7427885 20.33625C72.7361714 20.3898404 72.6887686 20.428878 72.6349038 20.4250962 72.5856308 20.4225811 72.5367332 20.4151401 72.4889423 20.4028846 72.4169818 20.3875707 72.3435699 20.3801231 72.27 20.3806731 72.161995 20.3777329 72.0543881 20.39495 71.9526923 20.4314423 71.8642359 20.4648307 71.7833298 20.5155318 71.7147115 20.5805769 71.6395235 20.6521624 71.5753644 20.7344998 71.5243269 20.8249038 71.4648096 20.9262469 71.4138632 21.0323853 71.3720192 21.1422115L71.3720192 23.43 70.7374038 23.43 70.7374038 19.8190385 71.1023077 19.8190385C71.1530202 19.8130264 71.2041108 19.8266505 71.2450962 19.8571154 71.2768116 19.8958898 71.2956652 19.9435783 71.2990385 19.9935577L71.3498077 20.5456731zM75.7223077 20.4631731C75.7061738 20.4858343 75.686949 20.5061271 75.6651923 20.5234615 75.641854 20.5392627 75.6140156 20.5470574 75.5858654 20.5456731 75.5431516 20.5430198 75.5022329 20.527537 75.4684615 20.50125 75.4272115 20.4726923 75.3732692 20.4377885 75.3098077 20.4028846 75.2360454 20.3625037 75.1584525 20.3295533 75.0781731 20.3045192 74.810164 20.2325313 74.5259472 20.2503645 74.2690385 20.3552885 74.1369513 20.4169751 74.0216037 20.5094708 73.9326923 20.625 73.8365337 20.7540651 73.7664754 20.9006486 73.7264423 21.0565385 73.6779468 21.2419049 73.6544693 21.4329263 73.6566346 21.6245192 73.6540976 21.8217675 73.679741 22.0183673 73.7327885 22.2083654 73.7752796 22.3635607 73.8474791 22.5090374 73.9453846 22.6367308 74.0296251 22.7476263 74.138177 22.8377244 74.2626923 22.9000962 74.400029 22.9628466 74.5495991 22.994278 74.7005769 22.9921154 74.9256751 23.0022786 75.1481012 22.9399993 75.3351923 22.8144231 75.4007692 22.77 75.4557692 22.72875 75.5001923 22.6906731 75.5358853 22.6579848 75.5819372 22.6388901 75.6302885 22.6367308 75.6781631 22.6348058 75.7236806 22.6575646 75.7508654 22.6970192L75.9285577 22.9286538C75.8513166 23.0248776 75.7604569 23.1093237 75.6588462 23.1793269 75.559814 23.2489877 75.4534016 23.3075145 75.3415385 23.3538462 75.224904 23.4004258 75.1036446 23.4344635 74.9798077 23.4553846 74.851887 23.4767957 74.7223921 23.48741 74.5926923 23.4871154 74.374902 23.4898642 74.1588783 23.4477396 73.9580769 23.3633654 73.7656634 23.280799 73.5935111 23.1573691 73.4535577 23.0016346 73.3035578 22.8314477 73.18919 22.6329225 73.1172115 22.4177885 72.9610394 21.916694 72.9610394 21.3799406 73.1172115 20.8788462 73.1820897 20.6617681 73.2900024 20.4599713 73.4345192 20.2854808 73.5812042 20.1183963 73.7633208 19.986145 73.9675962 19.8983654 74.1974372 19.8017165 74.444938 19.7541618 74.6942308 19.75875 74.9244854 19.7545451 75.1532394 19.7966272 75.3669231 19.8825 75.5603371 19.9641923 75.7360058 20.0827417 75.8841346 20.2315385L75.7223077 20.4631731zM78.0799038 19.7619231C78.3243527 19.7587351 78.5670092 19.804031 78.7938462 19.8951923 78.9962686 19.9804443 79.1780498 20.1081239 79.3269231 20.2696154 79.4817955 20.4390953 79.599595 20.6390303 79.6727885 20.8566346 79.8327055 21.3582355 79.8327055 21.8971491 79.6727885 22.39875 79.5999946 22.6174816 79.4821745 22.8185326 79.3269231 22.9889423 79.1759031 23.1522602 78.9906058 23.2801261 78.7843269 23.3633654 78.5571321 23.4529613 78.3145797 23.4971597 78.0703846 23.4934615 77.8241339 23.4970918 77.5795179 23.4529101 77.3500962 23.3633654 77.1426281 23.2806305 76.9561915 23.1527263 76.8043269 22.9889423 76.6540054 22.8183181 76.5405747 22.6184639 76.4711538 22.4019231 76.3112368 21.9003221 76.3112368 21.3614086 76.4711538 20.8598077 76.5443473 20.6422034 76.6621468 20.4422684 76.8170192 20.2727885 76.9694998 20.1097195 77.1557658 19.9819323 77.3627885 19.8983654 77.5905818 19.8063501 77.8342356 19.7599912 78.0799038 19.7619231zM78.0799038 22.9952885C78.3895879 23.0167588 78.6895563 22.8822492 78.8795192 22.6367308 79.2324611 22.0125944 79.2324611 21.2491363 78.8795192 20.625 78.6906102 20.3778299 78.3902676 20.2419606 78.0799038 20.2632692 77.9175079 20.2593952 77.7562039 20.29079 77.6071154 20.3552885 77.4743473 20.4158749 77.3587547 20.5085671 77.2707692 20.625 77.1758489 20.7539727 77.1078638 20.9007343 77.0708654 21.0565385 77.0244571 21.2454704 77.0020688 21.4395023 77.0042308 21.6340385 76.9831779 21.9882115 77.0766278 22.3397613 77.2707692 22.6367308 77.4651473 22.8819842 77.7676513 23.0160349 78.0799038 22.9952885L78.0799038 22.9952885z"/>
    <polygon fill="#47B3AF" points="10.747 30.95 10.747 31.534 7.841 31.534 7.841 26.41 8.532 26.41 8.532 30.953"/>
    <path fill="#47B3AF" d="M14.0408654 31.0263462C13.9601962 31.1230514 13.8649125 31.2065586 13.7584615 31.2738462 13.6479646 31.3450271 13.5298196 31.4035674 13.40625 31.4483654 13.2804993 31.4936932 13.150944 31.5276749 13.0191346 31.5499038 12.8881341 31.5726273 12.7554558 31.584303 12.6225 31.5848077 12.3859148 31.5872796 12.1510654 31.5441879 11.9307692 31.4578846 11.7235434 31.3788901 11.5361616 31.255413 11.3818269 31.0961538 11.2214123 30.9213043 11.0992856 30.7148776 11.0232692 30.4900962 10.9325854 30.2224831 10.8885792 29.9412729 10.8931731 29.65875 10.8917015 29.4179179 10.931408 29.1786062 11.0105769 28.9511538 11.082355 28.7404195 11.195644 28.5462097 11.34375 28.38 11.4923729 28.2174363 11.6741602 28.0886703 11.8768269 28.0024038 12.1006314 27.9081909 12.341634 27.8617195 12.5844231 27.8659615 12.7903816 27.8636819 12.9949209 27.9002837 13.1873077 27.9738462 13.3676901 28.0444867 13.5310068 28.1526435 13.6664423 28.2911538 13.8065235 28.4363545 13.9146164 28.6093032 13.98375 28.7988462 14.0632365 29.0195471 14.1019426 29.2528589 14.0979808 29.4874038 14.1040367 29.5556351 14.0931366 29.6243054 14.06625 29.6873077 14.0377013 29.724152 13.9919781 29.7434039 13.9456731 29.7380769L11.5246154 29.7380769C11.5276153 29.9404556 11.5596735 30.1413538 11.6198077 30.3346154 11.6680933 30.4909476 11.7480186 30.6356772 11.8546154 30.7598077 11.9527074 30.8712224 12.0754963 30.9581526 12.2131731 31.0136538 12.3616099 31.0722487 12.5200448 31.101349 12.6796154 31.0993269 12.8190617 31.1024869 12.9581707 31.0842958 13.0921154 31.0453846 13.1946975 31.0134977 13.2944617 30.9731674 13.3903846 30.9248077 13.4623286 30.8884454 13.5322397 30.8481935 13.5998077 30.8042308 13.6422823 30.7726255 13.6929494 30.7539007 13.7457692 30.7502885 13.7936438 30.7483635 13.8391614 30.7711223 13.8663462 30.8105769L14.0408654 31.0263462zM13.5268269 29.32875C13.5278836 29.1908164 13.5064487 29.0536329 13.4633654 28.9225962 13.4250427 28.8057341 13.3635259 28.6978097 13.2825 28.6052885 13.2015718 28.5158756 13.1018885 28.4454472 12.9905769 28.3990385 12.6120125 28.2535093 12.1840946 28.3278768 11.8768269 28.5925962 11.6922803 28.7972134 11.5807014 29.0571923 11.5595192 29.3319231L13.5268269 29.32875zM17.9374038 28.0531731L17.9374038 28.2879808C17.9374038 28.36625 17.8876923 28.4159615 17.7882692 28.4371154L17.3757692 28.4910577C17.5304028 28.8059497 17.5373762 29.1732149 17.3948077 29.49375 17.3291922 29.6359499 17.2339969 29.7625164 17.1155769 29.865 16.9896651 29.9707448 16.8440839 30.0505449 16.6872115 30.0998077 16.5118785 30.1559628 16.3287154 30.1838122 16.1446154 30.1823077 15.9829425 30.183455 15.8218298 30.1631825 15.6654808 30.1220192 15.5984565 30.161652 15.5392981 30.2132811 15.4909615 30.2743269 15.4534632 30.3200838 15.4322533 30.3770157 15.4306731 30.4361538 15.427579 30.5149614 15.4677292 30.5891783 15.5353846 30.6297115 15.6202657 30.67925 15.714068 30.7115956 15.8114423 30.7249038 15.9406215 30.7451726 16.071005 30.7568329 16.2017308 30.7598077L16.6523077 30.7820192C16.8033421 30.7920852 16.9537423 30.8100908 17.1028846 30.8359615 17.2387964 30.8593991 17.3703811 30.9032607 17.4931731 30.9660577 17.6047207 31.0237708 17.6997273 31.1089492 17.7692308 31.2135577 17.8442669 31.3364653 17.8807402 31.4790428 17.8739423 31.6228846 17.8727098 31.7804799 17.8323684 31.9353036 17.7565385 32.0734615 17.6739971 32.2245337 17.5604584 32.3564549 17.4233654 32.4605769 17.2620044 32.582287 17.0804873 32.6746567 16.8871154 32.7334615 16.6558607 32.8042188 16.4149855 32.8384766 16.1731731 32.835 15.9390947 32.8384746 15.7055422 32.8118134 15.4782692 32.7556731 15.3025877 32.7128492 15.1352881 32.6409961 14.9832692 32.5430769 14.8610478 32.4623061 14.7598776 32.3535209 14.6881731 32.2257692 14.6243112 32.1158709 14.590394 31.9911433 14.5898077 31.8640385 14.5857529 31.6968437 14.6459391 31.5344545 14.7579808 31.4102885 14.8853405 31.2755666 15.0431027 31.1732931 15.2180769 31.1120192 15.1180897 31.0705913 15.0298248 31.0052098 14.9610577 30.9216346 14.8790311 30.7824908 14.8616556 30.614527 14.9134615 30.4615385 14.9349229 30.4015384 14.9648401 30.3449094 15.0023077 30.2933654 15.0444614 30.2348499 15.0934633 30.1815869 15.1482692 30.1347115 15.209008 30.0820241 15.2761774 30.0372444 15.3481731 30.0014423 15.1686198 29.9072421 15.018282 29.7656831 14.9134615 29.5921154 14.8112563 29.4171294 14.7596283 29.2172084 14.7643269 29.0146154 14.7618358 28.8482909 14.7965265 28.6835101 14.8658654 28.5323077 14.93276 28.3900635 15.0302802 28.2643708 15.1514423 28.1642308 15.280017 28.058912 15.4275815 27.9792057 15.5861538 27.9294231 15.9085656 27.8311144 16.2512974 27.8201645 16.5793269 27.8976923 16.7097793 27.9302776 16.8348264 27.981579 16.9505769 28.05L17.9374038 28.0531731zM17.3027885 31.7307692C17.305122 31.6518781 17.2779705 31.574949 17.2266346 31.515 17.1705367 31.4557563 17.1008275 31.4110988 17.0235577 31.3849038 16.9280867 31.3514022 16.8290648 31.3290424 16.7284615 31.3182692 16.6163462 31.3055769 16.4978846 31.295 16.3730769 31.2865385L15.9923077 31.2643269C15.8632692 31.2643269 15.7395192 31.2526923 15.6210577 31.2294231 15.500818 31.2859665 15.3929725 31.3657722 15.30375 31.4642308 15.2238774 31.550803 15.1786932 31.6637636 15.1768246 31.7815385 15.1765674 31.8620794 15.1985264 31.9411317 15.2402885 32.01 15.287368 32.0862963 15.3528251 32.1495715 15.4306731 32.1940385 15.5297236 32.2500724 15.6367142 32.2907288 15.7479808 32.3146154 16.0517177 32.3752228 16.3644362 32.3752228 16.6681731 32.3146154 16.7898842 32.2891013 16.9066762 32.2440989 17.0140385 32.1813462 17.1009783 32.131628 17.1749165 32.062039 17.2298077 31.9782692 17.2720179 31.9027793 17.2928605 31.8172145 17.2900962 31.7307692L17.3027885 31.7307692zM16.1541346 29.7634615C16.2695875 29.7654184 16.3844926 29.7471625 16.4936538 29.7095192 16.5856923 29.6776992 16.6700151 29.6268893 16.7411538 29.5603846 16.8077263 29.4954312 16.8587146 29.4162367 16.8902885 29.32875 16.9247971 29.234232 16.9419949 29.13427 16.9410577 29.0336538 16.9506548 28.8363592 16.8769745 28.6440997 16.7379808 28.50375 16.3905918 28.2414337 15.9113313 28.2414337 15.5639423 28.50375 15.4249486 28.6440997 15.3512683 28.8363592 15.3608654 29.0336538 15.3592818 29.1343212 15.3764997 29.2343999 15.4116346 29.32875 15.444713 29.4162424 15.496723 29.495341 15.5639423 29.5603846 15.6350235 29.6269655 15.7193634 29.6777857 15.8114423 29.7095192 15.9175881 29.746081 16.0291795 29.7643219 16.1414423 29.7634615L16.1541346 29.7634615zM18.5053846 28.42125C18.6881585 28.2390842 18.9033994 28.0927204 19.14 27.9897115 19.3840597 27.892008 19.6450172 27.8434829 19.9078846 27.8469231 20.0926916 27.8441421 20.27616 27.8786773 20.4473077 27.9484615 20.598479 28.0111758 20.7339207 28.1065267 20.8439423 28.2276923 20.9551023 28.3525582 21.0383923 28.4996679 21.0882692 28.6592308 21.1448816 28.8399072 21.1727219 29.0283642 21.1707692 29.2176923L21.1707692 31.5340385 20.8883654 31.5340385C20.8387953 31.5363372 20.789508 31.5253845 20.7455769 31.5023077 20.7054756 31.4729811 20.6773073 31.4301653 20.66625 31.3817308L20.5932692 31.0390385C20.5043188 31.1220875 20.4111164 31.2004623 20.3140385 31.2738462 20.2250431 31.3407065 20.1293361 31.3981307 20.0284615 31.4451923 19.9269352 31.492598 19.8205352 31.528774 19.7111538 31.5530769 19.5870429 31.5794327 19.4604318 31.5922002 19.3335577 31.5911538 19.199028 31.5916358 19.0652336 31.5712991 18.9369231 31.5308654 18.8203518 31.493412 18.7124612 31.4329933 18.6196154 31.3531731 18.5251556 31.271459 18.4503216 31.1695113 18.4006731 31.0549038 18.3443999 30.919283 18.3173691 30.7733167 18.3213462 30.6265385 18.3220264 30.4808899 18.3626334 30.3382166 18.43875 30.2140385 18.5345829 30.0657988 18.6667563 29.9445488 18.8226923 29.8618269 19.0397228 29.7447861 19.272797 29.6603234 19.5144231 29.6111538 19.8591922 29.5424067 20.2099841 29.5083905 20.5615385 29.5096154L20.5615385 29.2272115C20.5774573 29.0010168 20.5134455 28.7764139 20.3806731 28.5925962 20.2453051 28.4429685 20.0489289 28.3634829 19.8475962 28.3768269 19.7128675 28.3734336 19.578597 28.3938427 19.4509615 28.4371154 19.3545825 28.4718755 19.2620684 28.5165375 19.1749038 28.5703846L18.975 28.7036538C18.9275962 28.7403987 18.8699266 28.7614703 18.81 28.7639423 18.7701458 28.7648649 18.7311033 28.7525944 18.6989423 28.7290385 18.667718 28.706574 18.6408386 28.6786193 18.6196154 28.6465385L18.5053846 28.42125zM20.5615385 29.9030769C20.3105903 29.9086761 20.0603515 29.9320034 19.8126923 29.9728846 19.639154 30.0005938 19.4696997 30.0496183 19.3081731 30.1188462 19.1973584 30.1643101 19.100106 30.2375226 19.0257692 30.3314423 18.967411 30.4103963 18.9362357 30.5061488 18.9369231 30.6043269 18.9350779 30.689267 18.9513015 30.7736297 18.9845192 30.8518269 19.0127211 30.9181531 19.056213 30.9768672 19.1114423 31.0231731 19.1674119 31.0680823 19.2323178 31.1005352 19.3018269 31.1183654 19.3782894 31.139569 19.4572867 31.1502443 19.5366346 31.1500962 19.6434356 31.1515313 19.7500069 31.1398085 19.8539423 31.1151923 19.945381 31.0931599 20.0338137 31.0601308 20.1173077 31.0168269 20.2001689 30.9735143 20.2787827 30.9225216 20.3521154 30.8645192 20.4298783 30.8021726 20.5030485 30.7343046 20.5710577 30.6614423L20.5615385 29.9030769z"/>
    <polygon fill="#47B3AF" points="22.811 26.267 22.811 31.534 22.177 31.534 22.177 26.267"/>
    <path fill="#47B3AF" d="M28.66875 26.2667308L28.66875 31.5340385 28.2911538 31.5340385C28.2082955 31.5401893 28.134242 31.4825922 28.1198077 31.4007692L28.0626923 30.9597115C27.9140772 31.1400431 27.7346659 31.2925964 27.5327885 31.4102885 27.3236127 31.5272952 27.0870326 31.5864402 26.8474038 31.5816346 26.6524999 31.5840512 26.4595221 31.5428537 26.2825962 31.4610577 26.112511 31.3800781 25.964476 31.2592554 25.8510577 31.1088462 25.7223437 30.9349676 25.6285918 30.7377654 25.575 30.5281731 25.5075161 30.2681965 25.4754953 30.0002886 25.4798077 29.7317308 25.4778501 29.4791473 25.5142256 29.2277287 25.5876923 28.9860577 25.6553119 28.7681878 25.7629157 28.5648167 25.905 28.3863462 26.0368419 28.2178374 26.2049437 28.0811869 26.3968269 27.9865385 26.6013364 27.8871726 26.8263079 27.8371789 27.0536538 27.8405769 27.2501692 27.8356501 27.4453039 27.8746771 27.6248077 27.9548077 27.7857235 28.0320871 27.9301211 28.1398465 28.05 28.2721154L28.05 26.2667308 28.66875 26.2667308zM28.0341346 28.7734615C27.9351764 28.6316086 27.8020292 28.5170147 27.6470192 28.4402885 27.500247 28.375215 27.3411107 28.3427382 27.1805769 28.3450962 26.8774473 28.3290742 26.5861464 28.4646182 26.4031731 28.7068269 26.2031348 29.0120444 26.1073909 29.3738672 26.1302885 29.7380769 26.1267354 29.9417538 26.1469685 30.1451492 26.1905769 30.3441346 26.2222434 30.4929196 26.2825989 30.6341083 26.3682692 30.7598077 26.4411879 30.8638235 26.5409911 30.9460788 26.6570192 30.9977885 26.7803036 31.0503657 26.9133011 31.0763164 27.0473077 31.0739423 27.2400381 31.0785927 27.4302131 31.0291252 27.59625 30.9311538 27.7640444 30.8250127 27.910425 30.6883191 28.0277885 30.5281731L28.0341346 28.7734615zM29.5857692 28.42125C29.7685431 28.2390842 29.9837841 28.0927204 30.2203846 27.9897115 30.4644444 27.892008 30.7254018 27.8434829 30.9882692 27.8469231 31.1730763 27.8441421 31.3565446 27.8786773 31.5276923 27.9484615 31.6788636 28.0111758 31.8143054 28.1065267 31.9243269 28.2276923 32.0354869 28.3525582 32.118777 28.4996679 32.1686538 28.6592308 32.2252663 28.8399072 32.2531065 29.0283642 32.2511538 29.2176923L32.2511538 31.5340385 31.96875 31.5340385C31.9191799 31.5363372 31.8698926 31.5253845 31.8259615 31.5023077 31.7858602 31.4729811 31.7576919 31.4301653 31.7466346 31.3817308L31.6736538 31.0390385C31.5847034 31.1220875 31.491501 31.2004623 31.3944231 31.2738462 31.3054277 31.3407065 31.2097207 31.3981307 31.1088462 31.4451923 31.0073198 31.492598 30.9009198 31.528774 30.7915385 31.5530769 30.6674275 31.5794327 30.5408165 31.5922002 30.4139423 31.5911538 30.2794126 31.5916358 30.1456183 31.5712991 30.0173077 31.5308654 29.9007364 31.493412 29.7928459 31.4329933 29.7 31.3531731 29.6055402 31.271459 29.5307063 31.1695113 29.4810577 31.0549038 29.4247845 30.919283 29.3977537 30.7733167 29.4017308 30.6265385 29.402411 30.4808899 29.443018 30.3382166 29.5191346 30.2140385 29.6149675 30.0657988 29.7471409 29.9445488 29.9030769 29.8618269 30.1201074 29.7447861 30.3531816 29.6603234 30.5948077 29.6111538 30.9382152 29.5394203 31.2879368 29.5022159 31.63875 29.5000962L31.63875 29.2176923C31.6546689 28.9914976 31.590657 28.7668946 31.4578846 28.5830769 31.3225166 28.4334492 31.1261405 28.3539637 30.9248077 28.3673077 30.790079 28.3639144 30.6558085 28.3843235 30.5281731 28.4275962 30.4317941 28.4623563 30.33928 28.5070182 30.2521154 28.5608654L30.0522115 28.6941346C30.0048077 28.7308795 29.9471381 28.7519511 29.8872115 28.7544231 29.8473573 28.7553456 29.8083148 28.7430751 29.7761538 28.7195192 29.7449296 28.6970548 29.7180501 28.6691001 29.6968269 28.6370192L29.5857692 28.42125zM31.6419231 29.9030769C31.3909749 29.9086761 31.1407361 29.9320034 30.8930769 29.9728846 30.7195386 30.0005938 30.5500843 30.0496183 30.3885577 30.1188462 30.277743 30.1643101 30.1804906 30.2375226 30.1061538 30.3314423 30.0477956 30.4103963 30.0166203 30.5061488 30.0173077 30.6043269 30.0154625 30.689267 30.0316861 30.7736297 30.0649038 30.8518269 30.0931058 30.9181531 30.1365977 30.9768672 30.1918269 31.0231731 30.2477965 31.0680823 30.3127024 31.1005352 30.3822115 31.1183654 30.458674 31.139569 30.5376714 31.1502443 30.6170192 31.1500962 30.7238203 31.1515313 30.8303916 31.1398085 30.9343269 31.1151923 31.0257656 31.0931599 31.1141984 31.0601308 31.1976923 31.0168269 31.2805535 30.9735143 31.3591673 30.9225216 31.4325 30.8645192 31.5102629 30.8021726 31.5834331 30.7343046 31.6514423 30.6614423L31.6419231 29.9030769zM36.7283654 26.4095192C37.0149239 26.4044825 37.3005853 26.4429987 37.5755769 26.52375 37.7944634 26.5865432 37.9977045 26.6946502 38.1721154 26.8410577 38.3281291 26.9774164 38.4489497 27.1493954 38.5243269 27.3424038 38.6044879 27.5508917 38.6443282 27.7727055 38.6417308 27.9960577 38.6447622 28.220039 38.6026763 28.4423388 38.5179808 28.6497115 38.4354004 28.8455878 38.3095657 29.0202376 38.1499038 29.1605769 37.9754919 29.3106287 37.7725974 29.4239474 37.5533654 29.49375 37.2877726 29.5782351 37.0102064 29.6189591 36.7315385 29.6143269L35.9097115 29.6143269 35.9097115 31.5181731 35.2211538 31.5181731 35.2211538 26.4095192 36.7283654 26.4095192zM36.7283654 29.0685577C36.9060962 29.0716321 37.0830801 29.0448163 37.2519231 28.9892308 37.3934949 28.9431954 37.5241538 28.8686875 37.6358654 28.7702885 37.7392638 28.6767319 37.8196266 28.5605317 37.8706731 28.4307692 37.9244461 28.2933131 37.9513742 28.1468242 37.95 27.9992308 37.9618796 27.7100595 37.8458096 27.4303308 37.6326923 27.2345192 37.3722097 27.0312294 37.0450924 26.9327547 36.7156731 26.9584615L35.8938462 26.9584615 35.8938462 29.0685577 36.7283654 29.0685577zM39.8982692 28.6370192C39.9941658 28.4145751 40.1383163 28.2162326 40.3202885 28.0563462 40.4924706 27.9149387 40.7099767 27.8405584 40.9326923 27.8469231 41.0064098 27.8468786 41.0798829 27.8553972 41.1516346 27.8723077 41.2181776 27.8876591 41.2815316 27.914504 41.3388462 27.9516346L41.29125 28.4275962C41.2846329 28.4811865 41.2372301 28.5202241 41.1833654 28.5164423 41.1340944 28.5139061 41.0851989 28.5064655 41.0374038 28.4942308 40.9654472 28.4788919 40.8920327 28.4714441 40.8184615 28.4720192 40.7104565 28.4690791 40.6028497 28.4862961 40.5011538 28.5227885 40.4126593 28.5560999 40.3317387 28.6068101 40.2631731 28.6719231 40.1878799 28.7434132 40.1237078 28.8257673 40.0727885 28.91625 40.013152 29.0175295 39.9622006 29.1236782 39.9204808 29.2335577L39.9204808 31.5213462 39.2858654 31.5213462 39.2858654 27.9230769 39.6634615 27.9230769C39.7141741 27.9170649 39.7652646 27.930689 39.80625 27.9611538 39.8379654 27.9999282 39.856819 28.0476167 39.8601923 28.0975962L39.8982692 28.6370192zM42.7957107 26.7744231C42.7961686 26.834701 42.781837 26.8943156 42.7537553 26.9489423 42.7259233 27.0020962 42.6880587 27.0504209 42.6418743 27.0917308 42.5957956 27.133669 42.5411727 27.1670772 42.4810454 27.1900962 42.4190852 27.2137214 42.3524567 27.2255992 42.2852536 27.225 42.2191499 27.2259036 42.1535939 27.2140044 42.0929581 27.1900962 42.0351954 27.1665768 41.9829652 27.13318 41.9391217 27.0917308 41.8951515 27.0501227 41.8596412 27.0017812 41.8342332 26.9489423 41.8078897 26.8939118 41.7947785 26.8344159 41.7957741 26.7744231 41.7951138 26.7134323 41.8082016 26.6529631 41.8342332 26.5967308 41.8590007 26.5426334 41.8945593 26.4931503 41.9391217 26.4507692 41.9829652 26.40932 42.0351954 26.3759232 42.0929581 26.3524038 42.1536572 26.3286795 42.2191694 26.3167883 42.2852536 26.3175 42.3524387 26.3170771 42.4190285 26.3289481 42.4810454 26.3524038 42.5411304 26.3754936 42.5957392 26.4088932 42.6418743 26.4507692 42.6886897 26.4928041 42.726611 26.5422768 42.7537553 26.5967308 42.7814794 26.6525873 42.7957816 26.713161 42.7957107 26.7744231zM42.6453706 27.9103846L42.6453706 31.5340385 41.9461142 31.5340385 41.9461142 27.9230769 42.6453706 27.9103846zM43.6139423 31.5340385L43.6139423 27.9230769 43.9978846 27.9230769C44.0800382 27.9171083 44.153095 27.9750024 44.1660577 28.0563462L44.2136538 28.4275962C44.3406505 28.2693928 44.4928889 28.1332359 44.6642308 28.0246154 44.8384584 27.9168856 45.0401025 27.8617916 45.2449038 27.8659615 45.4613417 27.8555839 45.6735774 27.9282207 45.8382692 28.0690385 45.9943745 28.2191699 46.1044451 28.4106928 46.1555769 28.6211538 46.2039563 28.4974941 46.272587 28.3827523 46.3586538 28.2816346 46.4375143 28.1890964 46.5307195 28.1098185 46.6347115 28.0468269 46.7331104 27.9858261 46.8400557 27.9398396 46.9520192 27.9103846 47.0671546 27.881176 47.1854486 27.866256 47.3042308 27.8659615 47.4788781 27.8631813 47.6523956 27.894436 47.8150962 27.9579808 47.9598329 28.0165173 48.089067 28.1077414 48.1926923 28.2245192 48.3015767 28.3499643 48.3826805 28.4970325 48.4306731 28.6560577 48.4883266 28.8452077 48.5161603 29.042185 48.5131731 29.2399038L48.5131731 31.5467308 47.8785577 31.5467308 47.8785577 29.2399038C47.8918374 29.0130328 47.8256374 28.788626 47.6913462 28.6052885 47.5555988 28.453978 47.3579546 28.373283 47.1550962 28.3863462 47.0531693 28.3854538 46.951985 28.4037531 46.8568269 28.4402885 46.7640228 28.4765331 46.6797471 28.5316364 46.6093269 28.6021154 46.5338559 28.6789501 46.475466 28.7708601 46.4379808 28.8718269 46.3938691 28.9927406 46.3723579 29.1207324 46.3745192 29.2494231L46.3745192 31.55625 45.7399038 31.55625 45.7399038 29.2494231C45.7576847 29.0190321 45.6961009 28.7894926 45.5653846 28.5989423 45.4371942 28.4524841 45.2488856 28.3729501 45.0545192 28.3831731 44.9004121 28.3827064 44.7494532 28.426782 44.6198077 28.5100962 44.4777457 28.6028611 44.3531472 28.7199408 44.2517308 28.8559615L44.2517308 31.55625 43.6139423 31.5340385zM52.4350962 31.0263462C52.354427 31.1230514 52.2591432 31.2065586 52.1526923 31.2738462 52.0421821 31.3450038 51.9240399 31.4035428 51.8004808 31.4483654 51.6747301 31.4936932 51.5451748 31.5276749 51.4133654 31.5499038 51.2823648 31.5726273 51.1496866 31.584303 51.0167308 31.5848077 50.7801456 31.5872796 50.5452962 31.5441879 50.325 31.4578846 50.1180289 31.3757009 49.9316939 31.2489498 49.7792308 31.0866346 49.6188914 30.9117293 49.4967745 30.7053194 49.4206731 30.4805769 49.3299892 30.2129639 49.2859831 29.9317537 49.2905769 29.6492308 49.2891054 29.4083986 49.3288118 29.1690869 49.4079808 28.9416346 49.4798372 28.730936 49.5931175 28.5367411 49.7411538 28.3704808 49.8898422 28.2079913 50.0716123 28.0792375 50.2742308 27.9928846 50.4980353 27.8986716 50.7390378 27.8522003 50.9818269 27.8564423 51.1877918 27.8540865 51.3923453 27.8906908 51.5847115 27.9643269 51.7650939 28.0349675 51.9284107 28.1431242 52.0638462 28.2816346 52.2040769 28.4267184 52.3121909 28.5997008 52.3811538 28.7893269 52.4607778 29.0099921 52.4994881 29.2433292 52.4953846 29.4778846 52.5014405 29.5461158 52.4905404 29.6147862 52.4636538 29.6777885 52.4351052 29.7146328 52.3893819 29.7338847 52.3430769 29.7285577L49.9220192 29.7285577C49.9250192 29.9309364 49.9570774 30.1318346 50.0172115 30.3250962 50.0656636 30.4813575 50.1455711 30.6260548 50.2520192 30.7502885 50.3501112 30.8617032 50.4729002 30.9486334 50.6105769 31.0041346 50.7590138 31.0627295 50.9174486 31.0918298 51.0770192 31.0898077 51.2164655 31.0929677 51.3555746 31.0747765 51.4895192 31.0358654 51.5920867 31.0039375 51.6918476 30.9636086 51.7877885 30.9152885 51.8597325 30.8789262 51.9296436 30.8386743 51.9972115 30.7947115 52.0397711 30.7632632 52.0903908 30.7445559 52.1431731 30.7407692 52.1910477 30.7388442 52.2365652 30.761603 52.26375 30.8010577L52.4350962 31.0263462zM51.9210577 29.32875C51.9221144 29.1908164 51.9006795 29.0536329 51.8575962 28.9225962 51.8183265 28.8054754 51.7557193 28.6975319 51.6735577 28.6052885 51.5926295 28.5158756 51.4929462 28.4454472 51.3816346 28.3990385 51.0030702 28.2535093 50.5751523 28.3278768 50.2678846 28.5925962 50.083338 28.7972134 49.971759 29.0571923 49.9505769 29.3319231L51.9210577 29.32875zM54.1711855 26.7744231C54.1717594 26.8347121 54.1574722 26.8943501 54.1293765 26.9489423 54.10158 27.0020633 54.0638548 27.0503788 54.017886 27.0917308 53.9719118 27.1336068 53.9174937 27.1670064 53.8576183 27.1900962 53.7958745 27.2137214 53.7294785 27.2255992 53.6625099 27.225 53.596637 27.2259036 53.5313097 27.2140044 53.4708855 27.1900962 53.4121247 27.1668612 53.3588778 27.1334543 53.314102 27.0917308 53.2702853 27.0501227 53.2348989 27.0017812 53.2095796 26.9489423 53.183328 26.8939118 53.1702625 26.8344159 53.1712547 26.7744231 53.1705967 26.7134323 53.1836388 26.6529631 53.2095796 26.5967308 53.2341892 26.542599 53.2696319 26.4931047 53.314102 26.4507692 53.3588778 26.4090457 53.4121247 26.3756388 53.4708855 26.3524038 53.5313728 26.3286795 53.5966564 26.3167883 53.6625099 26.3175 53.7294605 26.3170771 53.7958179 26.3289481 53.8576183 26.3524038 53.9174937 26.3754936 53.9719118 26.4088932 54.017886 26.4507692 54.064538 26.4928041 54.1023269 26.5422768 54.1293765 26.5967308 54.1571064 26.6525566 54.1713635 26.7131508 54.1711855 26.7744231L54.1711855 26.7744231zM54.017886 27.9230769L54.017886 31.5467308 53.3210701 31.5467308 53.3210701 27.9230769 54.017886 27.9230769zM55.5954808 28.6370192C55.6912846 28.4145223 55.835449 28.2161607 56.0175 28.0563462 56.1896822 27.9149387 56.4071882 27.8405584 56.6299038 27.8469231 56.7036213 27.8468786 56.7770945 27.8553972 56.8488462 27.8723077 56.9153493 27.8877817 56.9786828 27.9146179 57.0360577 27.9516346L56.9884615 28.4275962C56.9818445 28.4811865 56.9344417 28.5202241 56.8805769 28.5164423 56.8313038 28.5139272 56.7824062 28.5064863 56.7346154 28.4942308 56.6626548 28.4789168 56.589243 28.4714692 56.5156731 28.4720192 56.4076681 28.4690791 56.3000612 28.4862961 56.1983654 28.5227885 56.1099089 28.5561769 56.0290029 28.606878 55.9603846 28.6719231 55.8851966 28.7435085 55.8210375 28.825846 55.77 28.91625 55.7104827 29.0175931 55.6595363 29.1237314 55.6176923 29.2335577L55.6176923 31.5213462 54.9830769 31.5213462 54.9830769 27.9230769 55.3479808 27.9230769C55.3986933 27.9170649 55.4497839 27.930689 55.4907692 27.9611538 55.5224847 27.9999282 55.5413383 28.0476167 55.5447115 28.0975962L55.5954808 28.6370192zM57.4326923 28.42125C57.6155614 28.2391996 57.8307794 28.0928513 58.0673077 27.9897115 58.3113907 27.8920884 58.572332 27.8435663 58.8351923 27.8469231 59.0199993 27.8441421 59.2034677 27.8786773 59.3746154 27.9484615 59.5258376 28.0110832 59.6612984 28.1064476 59.77125 28.2276923 59.8823308 28.3526148 59.9656107 28.4997066 60.0155769 28.6592308 60.0721893 28.8399072 60.1000296 29.0283642 60.0980769 29.2176923L60.0980769 31.5340385 59.8156731 31.5340385C59.766103 31.5363372 59.7168157 31.5253845 59.6728846 31.5023077 59.6327833 31.4729811 59.604615 31.4301653 59.5935577 31.3817308L59.5205769 31.0390385C59.4315927 31.1220494 59.3383923 31.2004224 59.2413462 31.2738462 59.1524287 31.3408222 59.0567092 31.3982539 58.9557692 31.4451923 58.8542523 31.4926216 58.7478497 31.5287985 58.6384615 31.5530769 58.5143545 31.5794576 58.3877407 31.5922254 58.2608654 31.5911538 58.1263356 31.5916358 57.9925413 31.5712991 57.8642308 31.5308654 57.747625 31.4934913 57.6397194 31.4330642 57.5469231 31.3531731 57.4524633 31.271459 57.3776293 31.1695113 57.3279808 31.0549038 57.2717076 30.919283 57.2446768 30.7733167 57.2486538 30.6265385 57.2493341 30.4808899 57.2899411 30.3382166 57.3660577 30.2140385 57.4618906 30.0657988 57.594064 29.9445488 57.75 29.8618269 57.9670116 29.7447439 58.2000922 29.6602789 58.4417308 29.6111538 58.785135 29.5393993 59.1348586 29.5021947 59.4856731 29.5000962L59.4856731 29.2176923C59.5006774 28.9911138 59.4355318 28.766474 59.3016346 28.5830769 59.1665444 28.4330523 58.969967 28.3534852 58.7685577 28.3673077 58.633829 28.3639144 58.4995585 28.3843235 58.3719231 28.4275962 58.2755441 28.4623563 58.18303 28.5070182 58.0958654 28.5608654L57.8959615 28.6941346C57.8485577 28.7308795 57.7908881 28.7519511 57.7309615 28.7544231 57.6911073 28.7553456 57.6520648 28.7430751 57.6199038 28.7195192 57.5886796 28.6970548 57.5618001 28.6691001 57.5405769 28.6370192L57.4326923 28.42125zM59.4888462 29.9030769C59.237898 29.9086761 58.9876592 29.9320034 58.74 29.9728846 58.5664475 30.0005303 58.3969855 30.049557 58.2354808 30.1188462 58.1246661 30.1643101 58.0274136 30.2375226 57.9530769 30.3314423 57.8947187 30.4103963 57.8635434 30.5061488 57.8642308 30.6043269 57.8623856 30.689267 57.8786092 30.7736297 57.9118269 30.8518269 57.9400288 30.9181531 57.9835207 30.9768672 58.03875 31.0231731 58.0947196 31.0680823 58.1596255 31.1005352 58.2291346 31.1183654 58.305605 31.1395303 58.3845971 31.1502136 58.4639423 31.1500962 58.5707433 31.1515313 58.6773146 31.1398085 58.78125 31.1151923 58.8726979 31.0931898 58.9611341 31.0601594 59.0446154 31.0168269 59.1274955 30.9735468 59.2061123 30.9225521 59.2794231 30.8645192 59.3572222 30.8022146 59.4303953 30.7343439 59.4983654 30.6614423L59.4888462 29.9030769z"/>
    <polygon fill="#47B3AF" points="63.779 31.534 63.084 31.534 63.084 26.41 63.779 26.41"/>
    <path fill="#47B3AF" d="M65.4732692 28.4371154C65.5501506 28.3500675 65.6339847 28.269417 65.7239423 28.1959615 65.8114946 28.125063 65.9061306 28.0633901 66.0063462 28.0119231 66.1070028 27.960156 66.2135435 27.9207359 66.3236538 27.8945192 66.441084 27.8664266 66.5614698 27.8525769 66.6822115 27.8532692 66.8616323 27.8497756 67.0398511 27.8832592 67.2057692 27.9516346 67.3529305 28.0133922 67.4834033 28.1090722 67.5865385 28.2308654 67.6923181 28.3586373 67.7711146 28.5065157 67.8181731 28.6655769 67.8725113 28.8477772 67.8992503 29.0370892 67.8975 29.2272115L67.8975 31.5340385 67.2628846 31.5340385 67.2628846 29.2272115C67.276433 29.0003098 67.2102067 28.7758137 67.0756731 28.5925962 66.9309139 28.4321413 66.7200033 28.3477771 66.5045192 28.3641346 66.3200965 28.3632926 66.1386092 28.4103044 65.9777885 28.5005769 65.8067568 28.5966457 65.6533174 28.7211141 65.5240385 28.8686538L65.5240385 31.5372115 64.8894231 31.5372115 64.8894231 27.9230769 65.2733654 27.9230769C65.3560059 27.9155006 65.4300297 27.974161 65.4415385 28.0563462L65.4732692 28.4371154zM69.0429808 31.5340385L69.0429808 28.4529808 68.6431731 28.4053846C68.5985314 28.3964883 68.5563264 28.3780912 68.5194231 28.3514423 68.4872354 28.3251482 68.4695483 28.2850575 68.4718269 28.2435577L68.4718269 27.9833654 69.0429808 27.9833654 69.0429808 27.6343269C69.0402023 27.4465177 69.07027 27.259668 69.1318269 27.0822115 69.1848253 26.9292587 69.2703463 26.7896105 69.3825 26.6728846 69.49249 26.5615326 69.6257783 26.4759247 69.7727885 26.4222115 69.9375905 26.3629821 70.1117236 26.33396 70.2868269 26.3365385 70.4390207 26.335323 70.5903126 26.3600018 70.7342308 26.4095192L70.7342308 26.7268269C70.7342308 26.7517918 70.7241164 26.7756913 70.706167 26.7930424 70.6882175 26.8103935 70.6639885 26.819707 70.6390385 26.8188462L70.4042308 26.8188462C70.3031009 26.81803 70.2024644 26.8330184 70.1059615 26.8632692 70.01853 26.8902446 69.9390131 26.9381727 69.8743269 27.0028846 69.8054038 27.0746395 69.7543176 27.1615947 69.7251923 27.2567308 69.6880787 27.3833957 69.6709497 27.5150747 69.6744231 27.6470192L69.6744231 27.9643269 70.7183654 27.9643269 70.7183654 28.4244231 69.6807692 28.4244231 69.6807692 31.515 69.0429808 31.5340385zM71.1975 28.42125C71.3803691 28.2391996 71.5955871 28.0928513 71.8321154 27.9897115 72.0761984 27.8920884 72.3371397 27.8435663 72.6 27.8469231 72.784807 27.8441421 72.9682754 27.8786773 73.1394231 27.9484615 73.2906453 28.0110832 73.4261061 28.1064476 73.5360577 28.2276923 73.6471385 28.3526148 73.7304184 28.4997066 73.7803846 28.6592308 73.836997 28.8399072 73.8648373 29.0283642 73.8628846 29.2176923L73.8628846 31.5340385 73.5804808 31.5340385C73.5309107 31.5363372 73.4816234 31.5253845 73.4376923 31.5023077 73.397591 31.4729811 73.3694227 31.4301653 73.3583654 31.3817308L73.2853846 31.0390385C73.1964004 31.1220494 73.1032 31.2004224 73.0061538 31.2738462 72.9172364 31.3408222 72.8215169 31.3982539 72.7205769 31.4451923 72.61906 31.4926216 72.5126574 31.5287985 72.4032692 31.5530769 72.2791622 31.5794576 72.1525484 31.5922254 72.0256731 31.5911538 71.8911433 31.5916358 71.757349 31.5712991 71.6290385 31.5308654 71.5124327 31.4934913 71.4045271 31.4330642 71.3117308 31.3531731 71.217271 31.271459 71.142437 31.1695113 71.0927885 31.0549038 71.0365153 30.919283 71.0094845 30.7733167 71.0134615 30.6265385 71.0141418 30.4808899 71.0547488 30.3382166 71.1308654 30.2140385 71.2266983 30.0657988 71.3588717 29.9445488 71.5148077 29.8618269 71.7318193 29.7447439 71.9648999 29.6602789 72.2065385 29.6111538 72.5499427 29.5393993 72.8996663 29.5021947 73.2504808 29.5000962L73.2504808 29.2176923C73.265485 28.9911138 73.2003395 28.766474 73.0664423 28.5830769 72.9313521 28.4330523 72.7347747 28.3534852 72.5333654 28.3673077 72.3986367 28.3639144 72.2643662 28.3843235 72.1367308 28.4275962 72.0403518 28.4623563 71.9478376 28.5070182 71.8606731 28.5608654L71.6607692 28.6941346C71.6133654 28.7308795 71.5556958 28.7519511 71.4957692 28.7544231 71.455915 28.7553456 71.4168725 28.7430751 71.3847115 28.7195192 71.3534873 28.6970548 71.3266078 28.6691001 71.3053846 28.6370192L71.1975 28.42125zM73.6153846 27.3519231L73.1901923 27.3519231C73.1639313 27.356302 73.1371264 27.356302 73.1108654 27.3519231 73.0807104 27.3401226 73.0535981 27.3216863 73.0315385 27.2979808L72.5904808 26.8251923C72.5684477 26.8057336 72.5492254 26.7833076 72.5333654 26.7585577L72.5016346 26.7934615 72.4730769 26.8251923 72.0288462 27.2884615C71.985506 27.3306967 71.9275328 27.3545679 71.8670192 27.3550962L71.4259615 27.3550962 72.2224038 26.4031731 72.8157692 26.4031731 73.6153846 27.3519231zM73.2409615 29.8903846C72.9900133 29.8959838 72.7397746 29.9193111 72.4921154 29.9601923 72.3185629 29.987838 72.1491008 30.0368647 71.9875962 30.1061538 71.8767815 30.1516178 71.779529 30.2248303 71.7051923 30.31875 71.646834 30.397704 71.6156588 30.4934565 71.6163462 30.5916346 71.614501 30.6765747 71.6307246 30.7609374 71.6639423 30.8391346 71.6921442 30.9054608 71.7356361 30.9641749 71.7908654 31.0104808 71.846835 31.05539 71.9117409 31.0878429 71.98125 31.1056731 72.0577204 31.126838 72.1367124 31.1375213 72.2160577 31.1374038 72.3228587 31.138839 72.42943 31.1271162 72.5333654 31.1025 72.6248132 31.0804975 72.7132495 31.0474671 72.7967308 31.0041346 72.8796109 30.9608545 72.9582277 30.9098598 73.0315385 30.8518269 73.1093376 30.7895223 73.1825107 30.7216516 73.2504808 30.64875L73.2409615 29.8903846zM75.4494231 28.4371154C75.5263044 28.3500675 75.6101385 28.269417 75.7000962 28.1959615 75.7876485 28.125063 75.8822845 28.0633901 75.9825 28.0119231 76.0831566 27.960156 76.1896974 27.9207359 76.2998077 27.8945192 76.4172379 27.8664266 76.5376237 27.8525769 76.6583654 27.8532692 76.8377862 27.8497756 77.016005 27.8832592 77.1819231 27.9516346 77.3290844 28.0133922 77.4595571 28.1090722 77.5626923 28.2308654 77.6684719 28.3586373 77.7472684 28.5065157 77.7943269 28.6655769 77.8486651 28.8477772 77.8754041 29.0370892 77.8736538 29.2272115L77.8736538 31.5340385 77.2390385 31.5340385 77.2390385 29.2272115C77.2525869 29.0003098 77.1863605 28.7758137 77.0518269 28.5925962 76.9070678 28.4321413 76.6961572 28.3477771 76.4806731 28.3641346 76.2962504 28.3632926 76.114763 28.4103044 75.9539423 28.5005769 75.777894 28.5973446 75.6200528 28.7240471 75.4875 28.875L75.4875 31.5435577 74.8528846 31.5435577 74.8528846 27.9230769 75.2368269 27.9230769C75.3194674 27.9155006 75.3934913 27.974161 75.405 28.0563462L75.4494231 28.4371154zM81.3608654 28.5576923C81.3447315 28.5803536 81.3255067 28.6006464 81.30375 28.6179808 81.2804117 28.6337819 81.2525733 28.6415767 81.2244231 28.6401923 81.1817093 28.637539 81.1407906 28.6220562 81.1070192 28.5957692 81.0657692 28.5672115 81.0118269 28.5323077 80.9483654 28.4974038 80.8746031 28.4570229 80.7970102 28.4240725 80.7167308 28.3990385 80.4487217 28.3270505 80.1645049 28.3448837 79.9075962 28.4498077 79.7728631 28.5115303 79.6552291 28.6052018 79.5649038 28.7226923 79.4687453 28.8517574 79.398687 28.998341 79.3586538 29.1542308 79.3101584 29.3395972 79.2866809 29.5306186 79.2888462 29.7222115 79.2863091 29.9194598 79.3119526 30.1160596 79.365 30.3060577 79.4074911 30.461253 79.4796906 30.6067297 79.5775962 30.7344231 79.6618367 30.8453186 79.7703886 30.9354167 79.8949038 30.9977885 80.0322405 31.0605389 80.1818106 31.0919703 80.3327885 31.0898077 80.5578866 31.0999709 80.7803127 31.0376916 80.9674038 30.9121154 81.0329808 30.8676923 81.0879808 30.8264423 81.1324038 30.7883654 81.1680968 30.7556771 81.2141487 30.7365824 81.2625 30.7344231 81.3103746 30.7324981 81.3558922 30.7552569 81.3830769 30.7947115L81.5607692 31.0263462C81.4835281 31.1225699 81.3926684 31.207016 81.2910577 31.2770192 81.1920256 31.34668 81.0856132 31.4052069 80.97375 31.4515385 80.8571155 31.4981181 80.7358561 31.5321558 80.6120192 31.5530769 80.4840985 31.574488 80.3546037 31.5851023 80.2249038 31.5848077 80.0071135 31.5875565 79.7910898 31.5454319 79.5902885 31.4610577 79.3978749 31.3784913 79.2257226 31.2550614 79.0857692 31.0993269 78.9357693 30.92914 78.8214015 30.7306148 78.7494231 30.5154808 78.593251 30.0143863 78.593251 29.477633 78.7494231 28.9765385 78.8143012 28.7594604 78.9222139 28.5576636 79.0667308 28.3831731 79.2134157 28.2160886 79.3955323 28.0838373 79.5998077 27.9960577 79.8296488 27.8994088 80.0771496 27.8518541 80.3264423 27.8564423 80.5566969 27.8522374 80.7854509 27.8943195 80.9991346 27.9801923 81.1925486 28.0618846 81.3682173 28.1804341 81.5163462 28.3292308L81.3608654 28.5576923zM83.150897 26.7744231C83.151471 26.8347121 83.1371837 26.8943501 83.1090881 26.9489423 83.0812915 27.0020633 83.0435663 27.0503788 82.9975975 27.0917308 82.9516234 27.1336068 82.8972052 27.1670064 82.8373299 27.1900962 82.775586 27.2137214 82.7091901 27.2255992 82.6422214 27.225 82.5763485 27.2259036 82.5110212 27.2140044 82.4505971 27.1900962 82.3918362 27.1668612 82.3385893 27.1334543 82.2938135 27.0917308 82.2499968 27.0501227 82.2146105 27.0017812 82.1892911 26.9489423 82.1630395 26.8939118 82.1499741 26.8344159 82.1509662 26.7744231 82.1503083 26.7134323 82.1633503 26.6529631 82.1892911 26.5967308 82.2139007 26.542599 82.2493434 26.4931047 82.2938135 26.4507692 82.3385893 26.4090457 82.3918362 26.3756388 82.4505971 26.3524038 82.5110843 26.3286795 82.5763679 26.3167883 82.6422214 26.3175 82.709172 26.3170771 82.7755295 26.3289481 82.8373299 26.3524038 82.8972052 26.3754936 82.9516234 26.4088932 82.9975975 26.4507692 83.0442495 26.4928041 83.0820385 26.5422768 83.1090881 26.5967308 83.136818 26.6525566 83.1510751 26.7131508 83.150897 26.7744231zM83.0010816 27.9103846L83.0010816 31.5340385 82.3042657 31.5340385 82.3042657 27.9230769 83.0010816 27.9103846zM83.8771154 28.42125C84.0599845 28.2391996 84.2752025 28.0928513 84.5117308 27.9897115 84.7558138 27.8920884 85.0167551 27.8435663 85.2796154 27.8469231 85.4644224 27.8441421 85.6478908 27.8786773 85.8190385 27.9484615 85.9702607 28.0110832 86.1057214 28.1064476 86.2156731 28.2276923 86.3267539 28.3526148 86.4100338 28.4997066 86.46 28.6592308 86.5166124 28.8399072 86.5444526 29.0283642 86.5425 29.2176923L86.5425 31.5340385 86.2600962 31.5340385C86.210526 31.5363372 86.1612388 31.5253845 86.1173077 31.5023077 86.0772063 31.4729811 86.049038 31.4301653 86.0379808 31.3817308L85.965 31.0390385C85.8760158 31.1220494 85.7828154 31.2004224 85.6857692 31.2738462 85.5968518 31.3408222 85.5011323 31.3982539 85.4001923 31.4451923 85.2986754 31.4926216 85.1922728 31.5287985 85.0828846 31.5530769 84.9587776 31.5794576 84.8321638 31.5922254 84.7052885 31.5911538 84.5707587 31.5916358 84.4369644 31.5712991 84.3086538 31.5308654 84.192048 31.4934913 84.0841424 31.4330642 83.9913462 31.3531731 83.8968864 31.271459 83.8220524 31.1695113 83.7724038 31.0549038 83.7161307 30.919283 83.6890999 30.7733167 83.6930769 30.6265385 83.6937572 30.4808899 83.7343642 30.3382166 83.8104808 30.2140385 83.9063137 30.0657988 84.0384871 29.9445488 84.1944231 29.8618269 84.4114347 29.7447439 84.6445153 29.6602789 84.8861538 29.6111538 85.2295581 29.5393993 85.5792817 29.5021947 85.9300962 29.5000962L85.9300962 29.2176923C85.9451004 28.9911138 85.8799549 28.766474 85.7460577 28.5830769 85.6109675 28.4330523 85.4143901 28.3534852 85.2129808 28.3673077 85.0782521 28.3639144 84.9439816 28.3843235 84.8163462 28.4275962 84.7199672 28.4623563 84.627453 28.5070182 84.5402885 28.5608654L84.3403846 28.6941346C84.2929808 28.7308795 84.2353112 28.7519511 84.1753846 28.7544231 84.1355304 28.7553456 84.0964879 28.7430751 84.0643269 28.7195192 84.0331027 28.6970548 84.0062232 28.6691001 83.985 28.6370192L83.8771154 28.42125zM85.9332692 29.9030769C85.682321 29.9086761 85.4320823 29.9320034 85.1844231 29.9728846 85.0108706 30.0005303 84.8414085 30.049557 84.6799038 30.1188462 84.5690892 30.1643101 84.4718367 30.2375226 84.3975 30.3314423 84.3391417 30.4103963 84.3079665 30.5061488 84.3086538 30.6043269 84.3068087 30.689267 84.3230323 30.7736297 84.35625 30.8518269 84.3844519 30.9181531 84.4279438 30.9768672 84.4831731 31.0231731 84.5391427 31.0680823 84.6040486 31.1005352 84.6735577 31.1183654 84.7500281 31.1395303 84.8290201 31.1502136 84.9083654 31.1500962 85.0151664 31.1515313 85.1217377 31.1398085 85.2256731 31.1151923 85.3171209 31.0931898 85.4055572 31.0601594 85.4890385 31.0168269 85.5719186 30.9735468 85.6505354 30.9225521 85.7238462 30.8645192 85.8016453 30.8022146 85.8748184 30.7343439 85.9427885 30.6614423L85.9332692 29.9030769z"/>
    <path fill="#473581" d="M26.9711538 1.90384615C27.5537006 1.89389864 28.135054 1.96003425 28.7004808 2.10057692 29.1403222 2.20824444 29.5530526 2.4059661 29.9125962 2.68125 30.2240805 2.92816042 30.4675907 3.2502927 30.6201923 3.61730769 30.7800465 4.01551742 30.8587969 4.44163255 30.8518269 4.87067308 30.8519055 5.17416268 30.7970804 5.47516326 30.69 5.75913462 30.5819413 6.04639718 30.4264136 6.31347584 30.2299038 6.54923077 30.0196719 6.80084003 29.7686822 7.01536116 29.4874038 7.18384615 29.1739024 7.3709523 28.8336193 7.50899168 28.4783654 7.59317308 29.2614067 7.66546071 30.0013247 7.98431426 30.5916346 8.50384615 31.0901374 8.99739398 31.3574172 9.67826613 31.3277885 10.3791346 31.3352345 10.8380173 31.2454795 11.2932805 31.0644231 11.715 30.8869273 12.0963139 30.6229093 12.4309539 30.2933654 12.6923077 29.9276119 12.9847162 29.5067592 13.2005381 29.0558654 13.3269231 28.5140554 13.4799279 27.9529454 13.5536738 27.39 13.5458654L23.6108654 13.5458654 23.6108654 1.90384615 26.9711538 1.90384615zM24.4675962 2.57019231L24.4675962 7.34567308 26.9711538 7.34567308C27.4396643 7.3564439 27.9065452 7.2866801 28.3514423 7.13942308 28.7021711 7.02477678 29.0260057 6.84019107 29.3033654 6.59682692 29.5384499 6.38452728 29.7228023 6.12209619 29.8427885 5.82894231 29.9576326 5.54900864 30.0169072 5.24940231 30.0173077 4.94682692 30.0589419 4.27098156 29.7818328 3.6146087 29.2684615 3.17307692 28.7713462 2.76903846 28.0034615 2.56701923 26.9648077 2.56701923L24.4675962 2.57019231zM27.3931731 12.8858654C28.4149038 12.8858654 29.1880769 12.6648077 29.7126923 12.2226923 30.2485311 11.7552862 30.5388759 11.066888 30.4996154 10.3569231 30.5052714 10.0143398 30.4336924 9.67488189 30.2901923 9.36375 30.1497117 9.07004958 29.9420986 8.81352239 29.6841346 8.61490385 29.3939501 8.39624578 29.0642554 8.23570814 28.7131731 8.14211538 28.2860977 8.02667934 27.8450533 7.97114831 27.4026923 7.97711538L24.46125 7.97711538 24.46125 12.8763462 27.3931731 12.8858654zM40.7740385 3.30634615C40.7368949 3.39217535 40.651782 3.44724839 40.5582692 3.44596154 40.4515337 3.42827376 40.3540935 3.37451363 40.2822115 3.29365385 39.9373754 2.99336092 39.5375975 2.7627613 39.105 2.61461538 38.3920609 2.39803467 37.6296333 2.40690011 36.9219231 2.64 36.6211511 2.74783146 36.3457445 2.91631556 36.1127885 3.135 35.8984516 3.33964413 35.7297683 3.58726259 35.6177885 3.86163462 35.5052566 4.13649964 35.4481059 4.4308797 35.4496154 4.72788462 35.4358158 5.07215882 35.522946 5.41295923 35.7002885 5.70836538 35.8729434 5.97217114 36.0988307 6.19697771 36.3634615 6.36836538 36.655748 6.55815544 36.9700871 6.71159555 37.2995192 6.82528846 37.6485577 6.94798077 38.0071154 7.07067308 38.3751923 7.19336538 38.7432692 7.31605769 39.1018269 7.44932692 39.4508654 7.59317308 39.7870543 7.73141077 40.1021533 7.91619769 40.3869231 8.14211538 40.6625748 8.36330619 40.8885387 8.64008493 41.0500962 8.95442308 41.22901 9.32821509 41.3150054 9.73968681 41.3007692 10.1538462 41.3040892 10.6255548 41.2190669 11.0937156 41.0500962 11.5341346 40.8882407 11.9555687 40.6395942 12.338268 40.3202885 12.6574038 39.9858874 12.9867265 39.587348 13.243779 39.1494231 13.4125962 38.6430314 13.6049887 38.1044994 13.6986932 37.5628846 13.6886538 36.8781557 13.7061707 36.198557 13.5661256 35.5765385 13.2793269 35.0209171 13.0072201 34.5248015 12.6275838 34.1169231 12.1624038L34.3485577 11.8006731C34.4014584 11.7246661 34.4876041 11.6786431 34.5801923 11.6769231 34.6531405 11.6866416 34.7204424 11.7214143 34.7705769 11.7752885L35.0498077 12.0196154C35.1598077 12.1148077 35.2920192 12.2205769 35.4464423 12.3369231 35.6146683 12.4595454 35.7942357 12.5657983 35.9826923 12.6542308 36.2078698 12.7584589 36.4427497 12.8402949 36.6839423 12.8985577 36.9781546 12.9677456 37.2797096 13.0007782 37.5819231 12.9969231 38.0038257 13.004259 38.4234272 12.9332495 38.8194231 12.7875 39.1615008 12.6610543 39.4744965 12.4667811 39.7396154 12.2163462 39.9893751 11.9739141 40.1841521 11.6806665 40.3107692 11.3564423 40.4438218 11.0168798 40.5106019 10.6549747 40.5075 10.2902885 40.5221802 9.93387189 40.4352441 9.58062494 40.2568269 9.27173077 40.0871881 9.0037671 39.8608047 8.77630055 39.5936538 8.60538462 39.3010542 8.41780096 38.9867275 8.26649794 38.6575962 8.15480769 38.3085577 8.03423077 37.95 7.91576923 37.5819231 7.79942308 37.2138462 7.68307692 36.8552885 7.55403846 36.50625 7.41230769 36.1689673 7.27628585 35.8535622 7.0913195 35.5701923 6.86336538 35.290714 6.63628321 35.0634419 6.35165201 34.9038462 6.02884615 34.7243592 5.63835243 34.6385232 5.2113456 34.6531731 4.78182692 34.6524154 4.39436581 34.7278867 4.01054018 34.8752885 3.65221154 35.0239423 3.29332899 35.2454368 2.96919069 35.5257692 2.70028846 35.8317485 2.41059768 36.1919014 2.18415424 36.5855769 2.03394231 37.0444082 1.85972692 37.5322641 1.77464831 38.0229808 1.78326923 38.5790456 1.77458774 39.1316176 1.87260733 39.6507692 2.07201923 40.1442916 2.27327642 40.5913631 2.5734838 40.9644231 2.95413462L40.7740385 3.30634615z"/>
    <polygon fill="#473581" points="52.038 12.851 52.023 13.552 45.042 13.552 45.042 1.904 52.023 1.904 52.023 2.605 45.867 2.605 45.867 7.298 50.975 7.298 50.975 7.983 45.867 7.983 45.867 12.851"/>
    <path fill="#473581" d="M63.7090385 13.5490385L62.9824038 13.5490385C62.9018059 13.5518648 62.8215914 13.5366891 62.7475962 13.5046154 62.6743658 13.4654932 62.6129948 13.4074099 62.5699038 13.3364423L58.8288462 8.60538462C58.7882445 8.54947127 58.7425701 8.4974237 58.6924038 8.44990385 58.6468762 8.40727331 58.5942606 8.37291206 58.5369231 8.34836538 58.4708649 8.32133119 58.4015083 8.30319177 58.3306731 8.29442308 58.2338251 8.28266468 58.1363019 8.27736451 58.03875 8.27855769L56.5156731 8.27855769 56.5156731 13.5490385 55.6684615 13.5490385 55.6684615 1.90384615 58.6511538 1.90384615C59.9923077 1.90384615 60.9960577 2.16298077 61.6624038 2.68125 62.3478283 3.23614459 62.7216045 4.08896942 62.6650962 4.96903846 62.669799 5.38656525 62.5910466 5.80082482 62.4334615 6.1875 62.2817647 6.55251635 62.0559424 6.88206567 61.7702885 7.15528846 61.4653127 7.44325632 61.110499 7.67334759 60.7231731 7.83432692 60.2799461 8.01495206 59.8128794 8.13038273 59.3365385 8.17701923 59.4730563 8.26063912 59.5934318 8.36811728 59.6919231 8.49432692L63.7090385 13.5490385zM58.53375 7.65028846C59.0035288 7.65727871 59.4717896 7.59527159 59.9235577 7.46625 60.3010461 7.35834971 60.6536102 7.17721587 60.9611538 6.93317308 61.2338809 6.70861692 61.4510628 6.42410874 61.5957692 6.10182692 61.7480891 5.75727524 61.8238693 5.38378683 61.8178846 5.00711538 61.8696908 4.30138347 61.5706146 3.6154071 61.0182692 3.17307692 60.4767308 2.77115385 59.6866346 2.57019231 58.6479808 2.57019231L56.5125 2.57019231 56.5125 7.64711538 58.53375 7.65028846zM75.4018269 1.90384615L70.5882692 13.5490385 69.8394231 13.5490385 65.0258654 1.90384615 65.6826923 1.90384615C65.7513413 1.90037518 65.818939 1.92178111 65.8730769 1.96413462 65.9237324 2.0079983 65.9629397 2.06354193 65.9873077 2.12596154L69.96 11.8006731C70.0044231 11.92125 70.0488462 12.0502885 70.0932692 12.1877885 70.1376923 12.3252885 70.1789423 12.4649038 70.2170192 12.6066346 70.2508654 12.4649038 70.2868269 12.3252885 70.3249038 12.1877885 70.3618578 12.0562984 70.4063545 11.9270458 70.4581731 11.8006731L74.4213462 2.12596154C74.4442095 2.06451276 74.4837708 2.01066544 74.5355769 1.97048077 74.591821 1.92682712 74.6611122 1.90335754 74.7323077 1.90384615L75.4018269 1.90384615zM86.4663462 13.5490385L85.8158654 13.5490385C85.7472164 13.5525094 85.6796187 13.5311035 85.6254808 13.48875 85.5747293 13.4449733 85.5355039 13.389404 85.51125 13.3269231L84.1436538 9.94125 78.4321154 9.94125 77.0486538 13.3269231C77.0256425 13.3882919 76.9861087 13.4421019 76.9344231 13.4824038 76.878179 13.5260575 76.8088878 13.5495271 76.7376923 13.5490385L76.1030769 13.5490385 80.8626923 1.88798077 81.6940385 1.88798077 86.4663462 13.5490385zM83.8866346 9.31298077L81.5163462 3.42375C81.4227001 3.19835069 81.3432186 2.96732433 81.2783654 2.73201923 81.2445192 2.86317308 81.2085577 2.98798077 81.1704808 3.10644231 81.1345204 3.21419903 81.0932193 3.32009925 81.0467308 3.42375L78.6732692 9.30663462 83.8866346 9.31298077z"/>
    <path fill="#FFF" d="M4.51846154,17.16 C4.32664817,17.0988513 4.15024776,16.9971235 4.00125,16.8617308 C3.82490281,16.7002015 3.81214263,16.4265664 3.97269231,16.2493269 L8.67836538,11.0581731 C8.83989469,10.8818259 9.11352971,10.8690657 9.29076923,11.0296154 C9.46846154,11.1914423 9.68740385,11.6642308 9.52557692,11.8292308 L4.81990385,17.0172115 C4.74262217,17.103286 4.63401883,17.1547297 4.51846154,17.16 Z"/>
    <path fill="#473581" d="M13.2317308,0.142787705 C10.5222065,0.141504935 8.07876573,1.77269524 7.04098619,4.27560097 C6.00320665,6.77850671 6.57550687,9.66011337 8.49097612,11.5764904 C10.4064454,13.4928675 13.2877805,14.066533 15.7911777,13.0299395 C18.2945749,11.993346 19.9269231,9.55067844 19.9269231,6.84115385 C19.9269231,3.1429876 16.9298966,0.144540317 13.2317308,0.142787705 L13.2317308,0.142787705 Z M13.2317308,12.5939423 C10.0545534,12.5939423 7.47894231,10.0183312 7.47894231,6.84115385 C7.47894231,3.66397651 10.0545534,1.08836538 13.2317308,1.08836538 C16.4089081,1.08836538 18.9845192,3.66397651 18.9845192,6.84115385 C18.9845192,10.0183312 16.4089081,12.5939423 13.2317308,12.5939423 Z"/>
    <path fill="#FFF" d="M17.6423077,2.72567308 L8.68471154,11.0232692 C8.68471154,11.0232692 5.11182692,5.88288462 9.29076923,2.43692308 C9.28759615,2.44009615 12.5368269,-1.05028846 17.6423077,2.72567308 Z" opacity=".27"/>
  </g>
</svg>
